<?xml version="1.0" encoding="UTF-8" standalone="no"?>
<svg
   version="1.1"
   viewBox="-213 0 2924.2002 2359.6924"
   id="svg1"
   width="2924.2002"
   height="2359.6924"
   xmlns="http://www.w3.org/2000/svg"
   xmlns:svg="http://www.w3.org/2000/svg">
  <defs
     id="defs1" />
  <path
     fill="currentColor"
     d="m 2146.2133,1415.2588 c -195.107,87.9609 -442.288,206.291 -540.579,206.532 -47.4219,0.1133 -130.517,18.0723 -224.336,-14.1738 -146.341,-50.2803 -328.532,-165.453 -398.06197,-109.166 -76.2002,61.6562 -88.9463,83.6025 -188.793,115.169 l 16.5273,13.3428 c 83.5566,67.4619 100.427,156.474 232.95997,179.156 81.8535,14.0049 183.406,-0.2432 264.757,-23.4131 -127.765,74.208 -312.27397,96.1094 -440.13997,94.5371 -163.662,-2.0117 -353.747,-179.062 -534.104,-110.842 -81.5283,30.8613 -183.539,121.46 -177.54,232.678 l 0.96484,17.8945 c 110.393,-59.0586 176.425,-47.2021 281.194,10.6328 77.2217,42.6211 167.401,43.7988 252.458,63.8301 -145.625,24.4863 -279.436,97.4395 -420.498,63.5781 -156.924,-37.6699 -331.339998,231.117 -482.949,202.547 4.01074,-217.556 6.57617,-1555.04 6.45215,-1844.76 -0.0615,-142.334 -10.1494,-328.196 -6.87012,-497.564999 56.8965,2.25977 51.002,11.7803 102.188,70.126 110.10600245,115.334999 247.63,43.871099 359.356,-26.292 107.756,-67.6679997 216.23,-78.0801 319.722,-26.6729 -130,-4.39551 -169.185,67.688499 -256.042,169.905999 -26.0791,30.6855 -125.038,62.2871 -177.938,100.781 -27.4648,19.9854 -47.364298,48.8301 -23.5693,80.6279 103.076,137.752 350.661,-59.1406 425.011,-110.957 141.52,-98.6309 245.417,-126.534 397.068,-58.4141 145.057,65.1465 251.095,28.4795 367.948,-39.2988 -106.918,99.5459 -214.051,120.021 -360.971,173.406 -80.4727,29.2344 -125.464,75.7383 -134.886,126.328 -14.2998,76.7969 54.2715,149.872 172.492,171.691 204.343,37.7148 364.732,-128.392 540.923,-181.783 219.218,-66.4326 431.624,-30.2754 636.246,76.2373 196.655,102.374 367.302,173.398 555.997,74.3975 -302.521,265.677 -697.119,-55.0391 -1031.9,168.841 -100.78,67.3916 -164.343,116.372 -283.26,147.423 l 16.1797,14.1768 c 71.748,62.8633 202.755,66.4609 281.621,82.8584 52.3262,10.8818 109.128,7.4307 156.527,-1.3281 -96.1543,45.2188 -181.67,78.4697 -296.623,84.6377 -163.276,8.7549 -283.243,-10.5215 -413.296,129.075 l -22.6621,24.3242 32.8193,-5.294 c 62.5938,-10.0967 182.359,89.0566 299.041,156.328 73.6484,42.46 149.238,53.6572 189.141,65.1494 77.8096,22.4229 317.088,-21.5508 507.426,-66.248 z"
     id="path1" />
</svg>
