<?xml version="1.0" encoding="UTF-8" standalone="no"?>
<svg
   version="1.1"
   viewBox="-268 0 3033.3892 2472.9214"
   id="svg1"
   width="3033.3892"
   height="2472.9214"
   xmlns="http://www.w3.org/2000/svg"
   xmlns:svg="http://www.w3.org/2000/svg">
  <defs
     id="defs1" />
  <path
     fill="currentColor"
     d="m -244.76228,70.620269 c 24.7676,-30.4326 60.2031,-55.3018 77.9834,-54.5957 60.791,2.41406 61.0322,17.4365 109.993002,73.2451 105.828,110.853001 224.304998,42.929701 321.474998,-18.0918 136.454,-85.6895 250.062,-88.9268 355.048,-36.7773 l -96.1084,110.562001 c -3.60449,-0.12207 -7.11719,-0.18066 -10.5371,-0.17969 -100.542,0.0381 -78.2939,10.4219 -170.408,118.825 -72.3525,85.1328 -155.332,102.707 -182.446,116.552 1.65625,3.28223 2.875,5.21289 5.03711,8.10254 94.4922,126.28 301.286,-44.1455 380.654,-99.46 167.958,-117.057 285.279,-141.219 437.996,-72.6211 138.96097,62.4092 231.48097,28.5527 328.57097,-26.623 2.7236,-1.54785 5.4658,-3.12305 8.2285,-4.72559 0,0 86.6543,-17.3779 -7.3134,70.1104 -148.5721,138.328 -270.873,154.591 -405.79603,203.616 -20.0732,7.29199 -35.6787,15.5732 -42.9463,20.209 -1.27734,3.17676 -2.65527,7.54785 -3.61621,12.708 -11,59.0752 50.2676,134.885 164.80094,156.024 195.452,36.0732 323.784,-118.357 528.846,-180.499 231.488,-70.1514 445.43,-31.252 651.482,76.0059 198.085,103.118 372.121,161.854 528.418,79.8506 0,0 79.0029,-6.89551 -16.0898,76.6162 -358.071,314.46097 -795.664,12.8838 -1051.08,183.688 -50.7998,33.9688 -97.9775,67.6191 -151.765,97.2998 70.1807,31.10157 162.438,35.97067 226.291,49.24707 47.1777,9.8115 98.291,7.3457 141.195,0.1143 2.4678,-0.4151 4.9082,-0.8467 7.3174,-1.292 0,0 -20.5186,84.5352 -66.9434,106.367 -99.7002,46.8867 -194.565,83.2061 -313.27,89.5752 -118.863,6.374 -215.782,4.0674 -284.219,37.9707 72.5898,15.3174 173.882,97.9336 274.936,156.194 72.0537,41.541 145.458,52.2695 186.849,64.1904 70.0186,20.1768 308.496,-21.749 496.802,-65.9688 0,-9e-4 -66.4463,106.562 -66.4463,106.562 -2.5976,1.1709 -5.2051,2.3477 -7.8223,3.5303 -192.629,87.0146 -439.068,207.149 -549.312,207.42 -42.9688,0.1025 -132.618,18.293 -229.165,-14.8896 -130.036,-44.6787 -296.302,-135.11 -359.16193,-122.133 -24.8672,20.5361 -46.0098,39.9033 -77.2637,62.2969 60.9209,63.7285 87.1885,128.834 196.11593,147.478 78.3711,13.4082 176.953,-0.4834 253.617,-22.3193 0,0 6.1309,65.5781 -55.5986,101.432 -5.5703,3.2353 -11.1055,6.3223 -16.6191,9.2842 -148.975,80.0166 -323.90193,95.8447 -449.30393,94.3027 -173.755,-2.1358 -370.202,-170.732 -521.272,-113.59 -20.1133,7.6133 -38.7568,19.3799 -49.2354,27.9062 -7.83496,6.375 -43.4189,35.4248 -40.3555,104.722 115.118,-52.5273 181.729,-31.8916 277.438,20.9424 74.498,41.1182 162.604,42.2822 249.731,62.8018 l -88.9062,111.036 c -3.45703,0.581 -6.9082,1.1914 -10.3564,1.8291 -132.58,24.5029 -274.321,96.2178 -418.026,61.7217 -131.230998,-31.502 -299.920998,237.054 -482.314,202.683 -15.7959,-2.9766 -7.36426,-30.6631 18.7793,-61.0996 26.1445,-30.4375 60.999,-53.1445 76.7939,-50.168 120.826002,22.7695 300.968,-246.248 483.585,-202.411 41.2256,9.8965 80.7285,10.2324 120.844,5.3818 -17.3066,-5.8701 -35.4609,-13.5039 -52.3213,-22.8096 -105.294,-58.125 -165.981,-62.75 -252.685,-16.3643 -19.2051,10.2744 -32.626,9.291 -33.2891,-3.0117 l -0.96484,-17.8945 c -4.258788,-78.959 48.0205,-179.545 148.843,-261.851 43.1855,-35.2539 82.9443,-56.9395 116.705,-69.7188 201.387,-76.1748 375.499,91.8779 526.914,106.95 -53.9189,-39.6064 -80.1094,-95.3789 -134.892,-139.609 l -16.5273,-13.3428 c -31.3506,-25.3096 87.4639,-107.81 87.4639,-107.81 93.0029,-29.4023 64.8076,-22.6045 152.851,-93.8428 15.26949,-12.3613 27.90527,-19.7881 37.52827,-24.54 120.396,-59.4502 274.889,64.6514 410.887,111.378 91.0918,31.3086 167.632,13.5811 219.507,13.457 28.1133,-0.069 74.4297,-12.1338 132.494,-32.999 -83.0439,11.1143 -153.515,15.3428 -192.967,3.9746 -38.4141,-11.0645 -116.189,-22.7305 -191.433,-66.1094 -116.723,-67.2949 -246.174,-162.001 -288.539,-155.167 l -32.8193,5.294 c -58.8662,9.4951 17.5684,-67.543 17.5684,-67.543 l 22.6621,-24.3242 c 154.292,-165.6141 275.079,-165.5861 382.219,-169.4211 -51.1572,-10.9492 -102.9,-28.0078 -139.905,-60.4297 l -16.1797,-14.1768 c -29.499,-25.8486 89.9854,-108.24597 89.9854,-108.24597 111.034,-28.9922 152.449,-64.4258 257.856,-134.912 198.605,-132.813 371.566,-102.737 539.701,-84.6914 -40.999,-17.9434 -83.4883,-39.166 -126.641,-61.6299 -203.192,-105.769 -414.062,-139.185 -621.01,-76.4707 -147.319,44.6436 -339.767,222.425 -553.00097,183.069 -121.908,-22.5 -197.781,-92.8408 -180.182,-187.36 4.95312,-26.5947 19.2979,-63.6523 60.4951,-109.909 20.7822,-23.334 44.1436,-43.5576 65.4023,-58.8242 32.1338,-23.0762 59.9033,-36.7988 91.4033,-48.8125 -26.6348,-5.60352 -55.0342,-14.8613 -84.3564,-28.0303 -150.588,-67.6416 -241.062,-35.9971 -356.143,44.208 -69.3301,48.3184 -357.706,271.678 -469.366002,122.454 -17.9541,-23.9932 -27.5684,-68.2207 49.373002,-142.286 12.7471,-12.2705 24.5225,-21.709 34.7061,-29.1191 62.9629,-45.8164 122.446,-65.6641 155.944,-83.9668 28.2979,-34.1611 60.2109,-77.9727 112.089,-123.894 -64.1123,-4.54785 -125.965,15.7246 -175.872,47.0654 -126.283,79.3037 -282.854002,154.31 -397.24,34.4922 -53.4111,-60.8818 -41.3809,-64.9014 -94.3818,-67.0068 -17.7803,-0.70606 -11.7832,-26.7451 12.9844,-57.177701 z"
     id="path1" />
</svg>
