<?xml version="1.0" encoding="UTF-8" standalone="no"?>
<svg
   version="1.1"
   viewBox="-51 0 2386.9999 2387"
   id="svg1"
   width="2387"
   height="2387"
   xmlns="http://www.w3.org/2000/svg"
   xmlns:svg="http://www.w3.org/2000/svg">
  <defs
     id="defs1" />
  <path
     d="M 794,30 V 185 H 949 V 30 Z M 779,0 h 185 c 9.0791,0 15,8.5625 15,15 v 185 c 0,9.0791 -8.5625,15 -15,15 H 779 c -9.0791,0 -15,-8.5625 -15,-15 V 15 c 0,-9.0791 8.5625,-15 15,-15 z m 15,30 V 185 H 949 V 30 Z M 779,0 h 185 c 9.0791,0 15,8.5625 15,15 v 185 c 0,9.0791 -8.5625,15 -15,15 H 779 c -9.0791,0 -15,-8.5625 -15,-15 V 15 c 0,-9.0791 8.5625,-15 15,-15 z m 15,30 V 185 H 949 V 30 Z M 779,0 h 185 c 9.0791,0 15,8.5625 15,15 v 185 c 0,9.0791 -8.5625,15 -15,15 H 779 c -9.0791,0 -15,-8.5625 -15,-15 V 15 c 0,-9.0791 8.5625,-15 15,-15 z m 1038,20 v 175 h 175 V 20 Z m -5,-10 h 185 c 3.0264,0 5,2.85449 5,5 v 185 c 0,3.02637 -2.8545,5 -5,5 h -185 c -3.0264,0 -5,-2.85449 -5,-5 V 15 c 0,-3.02637 2.8545,-5 5,-5 z m 5,10 v 175 h 175 V 20 Z m -5,-10 h 185 c 3.0264,0 5,2.85449 5,5 v 185 c 0,3.02637 -2.8545,5 -5,5 h -185 c -3.0264,0 -5,-2.85449 -5,-5 V 15 c 0,-3.02637 2.8545,-5 5,-5 z m 5,10 v 175 h 175 V 20 Z m -5,-10 h 185 c 3.0264,0 5,2.85449 5,5 v 185 c 0,3.02637 -2.8545,5 -5,5 h -185 c -3.0264,0 -5,-2.85449 -5,-5 V 15 c 0,-3.02637 2.8545,-5 5,-5 z m -508,5 h 185 v 185 h -185 z m 0,0 h 185 v 185 h -185 z m 0,0 h 185 v 185 h -185 z m -265,0 h 185 v 185 h -185 z m 0,0 h 185 v 185 h -185 z m 0,0 h 185 V 200 H 1039 Z M 501,15 H 686 V 200 H 501 Z m 0,0 H 686 V 200 H 501 Z m 0,0 H 686 V 200 H 501 Z M 231,15 H 416 V 200 H 231 Z m 0,0 H 416 V 200 H 231 Z m 0,0 H 416 V 200 H 231 Z M -51,15 H 134 V 200 H -51 Z m 0,0 H 134 V 200 H -51 Z m 0,0 H 134 V 200 H -51 Z m 839,2187 v 175 h 175 v -175 z m -5,-10 h 185 c 3.02637,0 5,2.8545 5,5 v 185 c 0,3.0264 -2.85449,5 -5,5 H 783 c -3.02637,0 -5,-2.8545 -5,-5 v -185 c 0,-3.0264 2.85449,-5 5,-5 z m 5,10 v 175 h 175 v -175 z m -5,-10 h 185 c 3.02637,0 5,2.8545 5,5 v 185 c 0,3.0264 -2.85449,5 -5,5 H 783 c -3.02637,0 -5,-2.8545 -5,-5 v -185 c 0,-3.0264 2.85449,-5 5,-5 z m 5,10 v 175 h 175 v -175 z m -5,-10 h 185 c 3.02637,0 5,2.8545 5,5 v 185 c 0,3.0264 -2.85449,5 -5,5 H 783 c -3.02637,0 -5,-2.8545 -5,-5 v -185 c 0,-3.0264 2.85449,-5 5,-5 z m -552,5 h 185 v 185 H 231 Z m 0,0 h 185 v 185 H 231 Z m 0,0 h 185 v 185 H 231 Z m -282,0 h 185 v 185 H -51 Z m 0,0 h 185 v 185 H -51 Z m 0,0 h 185 v 185 H -51 Z M 1817,275.8896 v 175 h 175 v -175 z m -5,-10 h 185 c 3.0264,0 5,2.85449 5,5 v 185 c 0,3.02637 -2.8545,5 -5,5 h -185 c -3.0264,0 -5,-2.85449 -5,-5 v -185 c 0,-3.02637 2.8545,-5 5,-5 z M 1561,1453 v 175 h 175 v -175 z m -5,-10 h 185 c 3.0264,0 5,2.8545 5,5 v 185 c 0,3.0264 -2.8545,5 -5,5 h -185 c -3.0264,0 -5,-2.8545 -5,-5 v -185 c 0,-3.0264 2.8545,-5 5,-5 z M 1304,270.8896 h 185 v 185 H 1304 Z M 1309,979 v 175 h 175 V 979 Z m -5,-10 h 185 c 3.0264,0 5,2.85449 5,5 v 185 c 0,3.0264 -2.8545,5 -5,5 h -185 c -3.0264,0 -5,-2.8545 -5,-5 V 974 c 0,-3.02637 2.8545,-5 5,-5 z m 5,733 v 175 h 175 v -175 z m -5,-10 h 185 c 3.0264,0 5,2.8545 5,5 v 185 c 0,3.0264 -2.8545,5 -5,5 h -185 c -3.0264,0 -5,-2.8545 -5,-5 v -185 c 0,-3.0264 2.8545,-5 5,-5 z M 1059,532.1 v 145 h 145 v -145 z m -20,-40 h 185 c 12.1064,0 20,11.416 20,20 v 185 c 0,12.1064 -11.416,20 -20,20 h -185 c -12.1064,0 -20,-11.416 -20,-20 v -185 c 0,-12.1064 11.416,-20 20,-20 z m 20,267.9 v 145 h 145 V 760 Z m -20,-40 h 185 c 12.1064,0 20,11.416 20,20 v 185 c 0,12.1064 -11.416,20 -20,20 h -185 c -12.1064,0 -20,-11.416 -20,-20 V 740 c 0,-12.1064 11.416,-20 20,-20 z m 0,254 h 185 v 185 h -185 z m 0,234 h 185 v 185 h -185 z m 20,260 v 145 h 145 v -145 z m -20,-40 h 185 c 12.1064,0 20,11.416 20,20 v 185 c 0,12.1064 -11.416,20 -20,20 h -185 c -12.1064,0 -20,-11.416 -20,-20 v -185 c 0,-12.1064 11.416,-20 20,-20 z M 783,270.8896 h 185 v 185 H 783 Z M 783,512.1 h 185 v 185 H 783 Z M 808,999 v 135 H 943 V 999 Z m -25,-50 h 185 c 15.1328,0 25,14.2705 25,25 v 185 c 0,15.1328 -14.2705,25 -25,25 H 783 c -15.1328,0 -25,-14.2705 -25,-25 V 974 c 0,-15.1328 14.2705,-25 25,-25 z m 0,259 h 185 v 185 H 783 Z m 5,494 v 175 h 175 v -175 z m -5,-10 h 185 c 3.02637,0 5,2.8545 5,5 v 185 c 0,3.0264 -2.85449,5 -5,5 H 783 c -3.02637,0 -5,-2.8545 -5,-5 v -185 c 0,-3.0264 2.85449,-5 5,-5 z M 501,270.8896 h 185 v 185 H 501 Z M 501,512.1 h 185 v 185 H 501 Z m 0,1433.9 h 185 v 185 H 501 Z M 501,740 H 686 V 925 H 501 Z m 0,1206 h 185 v 185 H 501 Z m 0,-972 h 185 v 185 H 501 Z m 0,234 h 185 v 185 H 501 Z m 0,489 h 185 v 185 H 501 Z m 0,249 h 185 v 185 H 501 Z M 231,270.8896 h 185 v 185 H 231 Z M 231,512.1 h 185 v 185 H 231 Z m 0,1433.9 h 185 v 185 H 231 Z M 231,740 H 416 V 925 H 231 Z m 0,1206 h 185 v 185 H 231 Z m 0,-972 h 185 v 185 H 231 Z m 0,234 h 185 v 185 H 231 Z m 0,240 h 185 v 185 H 231 Z m 0,249 h 185 v 185 H 231 Z m 0,249 h 185 v 185 H 231 Z M -51,270.8896 h 185 v 185 H -51 Z M -51,512.1 h 185 v 185 H -51 Z m 0,1433.9 h 185 v 185 H -51 Z M -51,740 H 134 V 925 H -51 Z m 0,1206 h 185 v 185 H -51 Z m 0,-972 h 185 v 185 H -51 Z m 0,234 h 185 v 185 H -51 Z m 0,240 h 185 v 185 H -51 Z m 0,249 h 185 v 185 H -51 Z m 0,249 h 185 v 185 H -51 Z"
     id="path1" />
</svg>
