<?xml version="1.0" encoding="UTF-8" standalone="no"?>
<svg
   version="1.1"
   viewBox="-14 0 2387 2387"
   id="svg1"
   width="2387"
   height="2387"
   xmlns="http://www.w3.org/2000/svg"
   xmlns:svg="http://www.w3.org/2000/svg">
  <defs
     id="defs1" />
  <path
     fill="currentColor"
     d="M 1528,30 V 185 H 1373 V 30 Z m 15,-30 h -185 c -9.0791,0 -15,8.5625 -15,15 v 185 c 0,9.0791 8.5625,15 15,15 h 185 c 9.0791,0 15,-8.5625 15,-15 V 15 c 0,-9.0791 -8.5625,-15 -15,-15 z m -15,30 V 185 H 1373 V 30 Z m 15,-30 h -185 c -9.0791,0 -15,8.5625 -15,15 v 185 c 0,9.0791 8.5625,15 15,15 h 185 c 9.0791,0 15,-8.5625 15,-15 V 15 c 0,-9.0791 -8.5625,-15 -15,-15 z m -15,30 V 185 H 1373 V 30 Z m 15,-30 h -185 c -9.0791,0 -15,8.5625 -15,15 v 185 c 0,9.0791 8.5625,15 15,15 h 185 c 9.0791,0 15,-8.5625 15,-15 V 15 c 0,-9.0791 -8.5625,-15 -15,-15 z M 505,20 V 195 H 330 V 20 Z m 5,-10 H 325 c -3.0264,0 -5,2.85449 -5,5 v 185 c 0,3.02637 2.8545,5 5,5 h 185 c 3.0264,0 5,-2.85449 5,-5 V 15 c 0,-3.02637 -2.8545,-5 -5,-5 z m -5,10 V 195 H 330 V 20 Z m 5,-10 H 325 c -3.0264,0 -5,2.85449 -5,5 v 185 c 0,3.02637 2.8545,5 5,5 h 185 c 3.0264,0 5,-2.85449 5,-5 V 15 c 0,-3.02637 -2.8545,-5 -5,-5 z m -5,10 V 195 H 330 V 20 Z m 5,-10 H 325 c -3.0264,0 -5,2.85449 -5,5 v 185 c 0,3.02637 2.8545,5 5,5 h 185 c 3.0264,0 5,-2.85449 5,-5 V 15 c 0,-3.02637 -2.8545,-5 -5,-5 z m 508,5 H 833 v 185 h 185 z m 0,0 H 833 v 185 h 185 z m 0,0 H 833 v 185 h 185 z m 265,0 h -185 v 185 h 185 z m 0,0 h -185 v 185 h 185 z m 0,0 h -185 v 185 h 185 z m 538,0 h -185 v 185 h 185 z m 0,0 h -185 v 185 h 185 z m 0,0 h -185 v 185 h 185 z m 270,0 h -185 v 185 h 185 z m 0,0 h -185 v 185 h 185 z m 0,0 h -185 v 185 h 185 z m 282,0 h -185 v 185 h 185 z m 0,0 h -185 v 185 h 185 z m 0,0 h -185 v 185 h 185 z m -839,2187 v 175 h -175 v -175 z m 5,-10 h -185 c -3.0264,0 -5,2.8545 -5,5 v 185 c 0,3.0264 2.8545,5 5,5 h 185 c 3.0264,0 5,-2.8545 5,-5 v -185 c 0,-3.0264 -2.8545,-5 -5,-5 z m -5,10 v 175 h -175 v -175 z m 5,-10 h -185 c -3.0264,0 -5,2.8545 -5,5 v 185 c 0,3.0264 2.8545,5 5,5 h 185 c 3.0264,0 5,-2.8545 5,-5 v -185 c 0,-3.0264 -2.8545,-5 -5,-5 z m -5,10 v 175 h -175 v -175 z m 5,-10 h -185 c -3.0264,0 -5,2.8545 -5,5 v 185 c 0,3.0264 2.8545,5 5,5 h 185 c 3.0264,0 5,-2.8545 5,-5 v -185 c 0,-3.0264 -2.8545,-5 -5,-5 z m 552,5 h -185 v 185 h 185 z m 0,0 h -185 v 185 h 185 z m 0,0 h -185 v 185 h 185 z m 282,0 h -185 v 185 h 185 z m 0,0 h -185 v 185 h 185 z m 0,0 h -185 v 185 h 185 z M 505,275.8896 v 175 H 330 v -175 z m 5,-10 H 325 c -3.0264,0 -5,2.85449 -5,5 v 185 c 0,3.02637 2.8545,5 5,5 h 185 c 3.0264,0 5,-2.85449 5,-5 v -185 c 0,-3.02637 -2.8545,-5 -5,-5 z M 761,1453 v 175 H 586 v -175 z m 5,-10 H 581 c -3.0264,0 -5,2.8545 -5,5 v 185 c 0,3.0264 2.8545,5 5,5 h 185 c 3.0264,0 5,-2.8545 5,-5 v -185 c 0,-3.0264 -2.8545,-5 -5,-5 z M 1018,270.8896 H 833 v 185 h 185 z M 1013,979 v 175 H 838 V 979 Z m 5,-10 H 833 c -3.0264,0 -5,2.85449 -5,5 v 185 c 0,3.0264 2.8545,5 5,5 h 185 c 3.0264,0 5,-2.8545 5,-5 V 974 c 0,-3.02637 -2.8545,-5 -5,-5 z m -5,733 v 175 H 838 v -175 z m 5,-10 H 833 c -3.0264,0 -5,2.8545 -5,5 v 185 c 0,3.0264 2.8545,5 5,5 h 185 c 3.0264,0 5,-2.8545 5,-5 v -185 c 0,-3.0264 -2.8545,-5 -5,-5 z M 1263,532.1 v 145 h -145 v -145 z m 20,-40 h -185 c -12.1064,0 -20,11.416 -20,20 v 185 c 0,12.1064 11.416,20 20,20 h 185 c 12.1064,0 20,-11.416 20,-20 v -185 c 0,-12.1064 -11.416,-20 -20,-20 z M 1263,760 V 905 H 1118 V 760 Z m 20,-40 h -185 c -12.1064,0 -20,11.416 -20,20 v 185 c 0,12.1064 11.416,20 20,20 h 185 c 12.1064,0 20,-11.416 20,-20 V 740 c 0,-12.1064 -11.416,-20 -20,-20 z m 0,254 h -185 v 185 h 185 z m 0,234 h -185 v 185 h 185 z m -20,260 v 145 h -145 v -145 z m 20,-40 h -185 c -12.1064,0 -20,11.416 -20,20 v 185 c 0,12.1064 11.416,20 20,20 h 185 c 12.1064,0 20,-11.416 20,-20 v -185 c 0,-12.1064 -11.416,-20 -20,-20 z M 1539,270.8896 h -185 v 185 h 185 z m 0,241.2104 h -185 v 185 h 185 z M 1514,999 v 135 H 1379 V 999 Z m 25,-50 h -185 c -15.1328,0 -25,14.2705 -25,25 v 185 c 0,15.1328 14.2705,25 25,25 h 185 c 15.1328,0 25,-14.2705 25,-25 V 974 c 0,-15.1328 -14.2705,-25 -25,-25 z m 0,259 h -185 v 185 h 185 z m -5,494 v 175 h -175 v -175 z m 5,-10 h -185 c -3.0264,0 -5,2.8545 -5,5 v 185 c 0,3.0264 2.8545,5 5,5 h 185 c 3.0264,0 5,-2.8545 5,-5 v -185 c 0,-3.0264 -2.8545,-5 -5,-5 z M 1821,270.8896 h -185 v 185 h 185 z m 0,241.2104 h -185 v 185 h 185 z m 0,1433.9 h -185 v 185 h 185 z m 0,-1206 h -185 v 185 h 185 z m 0,1206 h -185 v 185 h 185 z m 0,-972 h -185 v 185 h 185 z m 0,234 h -185 v 185 h 185 z m 0,489 h -185 v 185 h 185 z m 0,249 h -185 v 185 h 185 z M 2091,270.8896 h -185 v 185 h 185 z m 0,241.2104 h -185 v 185 h 185 z m 0,1433.9 h -185 v 185 h 185 z m 0,-1206 h -185 v 185 h 185 z m 0,1206 h -185 v 185 h 185 z m 0,-972 h -185 v 185 h 185 z m 0,234 h -185 v 185 h 185 z m 0,240 h -185 v 185 h 185 z m 0,249 h -185 v 185 h 185 z m 0,249 h -185 v 185 h 185 z M 2373,270.8896 h -185 v 185 h 185 z m 0,241.2104 h -185 v 185 h 185 z m 0,1433.9 h -185 v 185 h 185 z m 0,-1206 h -185 v 185 h 185 z m 0,1206 h -185 v 185 h 185 z m 0,-972 h -185 v 185 h 185 z m 0,234 h -185 v 185 h 185 z m 0,240 h -185 v 185 h 185 z m 0,249 h -185 v 185 h 185 z m 0,249 h -185 v 185 h 185 z"
     id="path1" />
</svg>
