<?xml version="1.0" encoding="UTF-8" standalone="no"?>
<svg
   version="1.1"
   viewBox="-45 0 2479.5 2479.5"
   id="svg1"
   width="2479.5"
   height="2479.5"
   xmlns="http://www.w3.org/2000/svg"
   xmlns:svg="http://www.w3.org/2000/svg">
  <defs
     id="defs1" />
  <path
     fill="currentColor"
     d="M 1222.5,45 V 277.5 H 1455 V 45 Z M 1200,0 h 277.5 c 13.6182,0 22.5,12.8438 22.5,22.5 V 300 c 0,13.6182 -12.8438,22.5 -22.5,22.5 H 1200 c -13.6182,0 -22.5,-12.8438 -22.5,-22.5 V 22.5 C 1177.5,8.8818 1190.3438,0 1200,0 Z m 22.5,45 V 277.5 H 1455 V 45 Z M 1200,0 h 277.5 c 13.6182,0 22.5,12.8438 22.5,22.5 V 300 c 0,13.6182 -12.8438,22.5 -22.5,22.5 H 1200 c -13.6182,0 -22.5,-12.8438 -22.5,-22.5 V 22.5 C 1177.5,8.8818 1190.3438,0 1200,0 Z m 22.5,45 V 277.5 H 1455 V 45 Z M 1200,0 h 277.5 c 13.6182,0 22.5,12.8438 22.5,22.5 V 300 c 0,13.6182 -12.8438,22.5 -22.5,22.5 H 1200 c -13.6182,0 -22.5,-12.8438 -22.5,-22.5 V 22.5 C 1177.5,8.8818 1190.3438,0 1200,0 Z M 795.5,35 V 287.5 H 1048 V 35 Z M 783,10 h 277.5 c 7.5664,0 12.5,7.13477 12.5,12.5 V 300 c 0,7.56641 -7.1348,12.5 -12.5,12.5 H 783 c -7.56641,0 -12.5,-7.13477 -12.5,-12.5 V 22.5 C 770.5,14.93359 777.63477,10 783,10 Z m 12.5,25 V 287.5 H 1048 V 35 Z M 783,10 h 277.5 c 7.5664,0 12.5,7.13477 12.5,12.5 V 300 c 0,7.56641 -7.1348,12.5 -12.5,12.5 H 783 c -7.56641,0 -12.5,-7.13477 -12.5,-12.5 V 22.5 C 770.5,14.93359 777.63477,10 783,10 Z m 12.5,25 V 287.5 H 1048 V 35 Z M 783,10 h 277.5 c 7.5664,0 12.5,7.13477 12.5,12.5 V 300 c 0,7.56641 -7.1348,12.5 -12.5,12.5 H 783 c -7.56641,0 -12.5,-7.13477 -12.5,-12.5 V 22.5 C 770.5,14.93359 777.63477,10 783,10 Z M 378,22.5 H 655.5 V 300 H 378 Z m 0,0 H 655.5 V 300 H 378 Z m 0,0 H 655.5 V 300 H 378 Z m -423,0 H 232.5 V 300 H -45 Z m 0,0 H 232.5 V 300 H -45 Z m 0,0 H 232.5 V 300 H -45 Z m 1665,775.649 v 217.5 h 217.5 v -217.5 z m -30,-60 h 277.5 c 18.1592,0 30,17.124 30,30 v 277.5 c 0,18.1602 -17.124,30 -30,30 H 1590 c -18.1592,0 -30,-17.124 -30,-30 v -277.5 c 0,-18.1602 17.124,-30 30,-30 z M 1620,2202 v 217.5 h 217.5 V 2202 Z m -30,-60 h 277.5 c 18.1592,0 30,17.124 30,30 v 277.5 c 0,18.1592 -17.124,30 -30,30 H 1590 c -18.1592,0 -30,-17.124 -30,-30 V 2172 c 0,-18.1592 17.124,-30 30,-30 z M 1218.5,418.835 v 252.5 H 1471 v -252.5 z m -12.5,-25 h 277.5 c 7.5664,0 12.5,7.13477 12.5,12.5 v 277.5 c 0,7.56641 -7.1348,12.5 -12.5,12.5 H 1206 c -7.5664,0 -12.5,-7.13477 -12.5,-12.5 v -277.5 c 0,-7.56641 7.1348,-12.5 12.5,-12.5 z M 1243.5,1498.5 V 1701 H 1446 v -202.5 z m -37.5,-75 h 277.5 c 22.6992,0 37.5,21.4053 37.5,37.5 v 277.5 c 0,22.6992 -21.4053,37.5 -37.5,37.5 H 1206 c -22.6992,0 -37.5,-21.4053 -37.5,-37.5 V 1461 c 0,-22.6992 21.4053,-37.5 37.5,-37.5 z M 783,406.335 h 277.5 v 277.5 H 783 Z m 12.5,374.314 v 252.5 H 1048 v -252.5 z m -12.5,-25 h 277.5 c 7.5664,0 12.5,7.13477 12.5,12.5 v 277.5 c 0,7.5664 -7.1348,12.5 -12.5,12.5 H 783 c -7.56641,0 -12.5,-7.1348 -12.5,-12.5 v -277.5 c 0,-7.56641 7.13477,-12.5 12.5,-12.5 z M 783,1110 h 277.5 v 277.5 H 783 Z m 25,727 v 227.5 h 227.5 V 1837 Z m -25,-50 h 277.5 c 15.1328,0 25,14.2705 25,25 v 277.5 c 0,15.1328 -14.2705,25 -25,25 H 783 c -15.1328,0 -25,-14.2705 -25,-25 V 1812 c 0,-15.1328 14.2705,-25 25,-25 z M 378,406.335 h 277.5 v 277.5 H 378 Z m 0,361.814 h 277.5 v 277.5 H 378 Z M 378,1461 h 277.5 v 277.5 H 378 Z m 0,351 h 277.5 v 277.5 H 378 Z m 0,360 h 277.5 v 277.5 H 378 Z M -45,406.335 h 277.5 v 277.5 H -45 Z m 0,361.814 h 277.5 v 277.5 H -45 Z M -45,1110 h 277.5 v 277.5 H -45 Z m 0,351 h 277.5 v 277.5 H -45 Z m 0,351 h 277.5 v 277.5 H -45 Z m 0,360 h 277.5 v 277.5 H -45 Z"
     id="path1" />
</svg>
