<?xml version="1.0" encoding="UTF-8" standalone="no"?>
<svg
   version="1.1"
   viewBox="-45 0 2479.5 2479.5"
   id="svg1"
   width="2479.5"
   height="2479.5"
   xmlns="http://www.w3.org/2000/svg"
   xmlns:svg="http://www.w3.org/2000/svg">
  <defs
     id="defs1" />
  <path
     d="M 1167,45 V 277.5 H 934.5 V 45 Z M 1189.5,0 H 912 C 898.3818,0 889.5,12.8438 889.5,22.5 V 300 c 0,13.6182 12.8438,22.5 22.5,22.5 h 277.5 c 13.6182,0 22.5,-12.8438 22.5,-22.5 V 22.5 C 1212,8.8818 1199.1562,0 1189.5,0 Z M 1167,45 V 277.5 H 934.5 V 45 Z M 1189.5,0 H 912 C 898.3818,0 889.5,12.8438 889.5,22.5 V 300 c 0,13.6182 12.8438,22.5 22.5,22.5 h 277.5 c 13.6182,0 22.5,-12.8438 22.5,-22.5 V 22.5 C 1212,8.8818 1199.1562,0 1189.5,0 Z M 1167,45 V 277.5 H 934.5 V 45 Z M 1189.5,0 H 912 C 898.3818,0 889.5,12.8438 889.5,22.5 V 300 c 0,13.6182 12.8438,22.5 22.5,22.5 h 277.5 c 13.6182,0 22.5,-12.8438 22.5,-22.5 V 22.5 C 1212,8.8818 1199.1562,0 1189.5,0 Z M 1594,35 V 287.5 H 1341.5 V 35 Z m 12.5,-25 H 1329 c -7.5664,0 -12.5,7.13477 -12.5,12.5 V 300 c 0,7.56641 7.1348,12.5 12.5,12.5 h 277.5 c 7.5664,0 12.5,-7.13477 12.5,-12.5 V 22.5 C 1619,14.93359 1611.8652,10 1606.5,10 Z M 1594,35 V 287.5 H 1341.5 V 35 Z m 12.5,-25 H 1329 c -7.5664,0 -12.5,7.13477 -12.5,12.5 V 300 c 0,7.56641 7.1348,12.5 12.5,12.5 h 277.5 c 7.5664,0 12.5,-7.13477 12.5,-12.5 V 22.5 C 1619,14.93359 1611.8652,10 1606.5,10 Z M 1594,35 V 287.5 H 1341.5 V 35 Z m 12.5,-25 H 1329 c -7.5664,0 -12.5,7.13477 -12.5,12.5 V 300 c 0,7.56641 7.1348,12.5 12.5,12.5 h 277.5 c 7.5664,0 12.5,-7.13477 12.5,-12.5 V 22.5 c 0,-7.56641 -7.1348,-12.5 -12.5,-12.5 z m 405,12.5 H 1734 V 300 h 277.5 z m 0,0 H 1734 V 300 h 277.5 z m 0,0 H 1734 V 300 h 277.5 z m 423,0 H 2157 V 300 h 277.5 z m 0,0 H 2157 V 300 h 277.5 z m 0,0 H 2157 V 300 h 277.5 z m -1665,775.649 v 217.5 H 552 v -217.5 z m 30,-60 H 522 c -18.1592,0 -30,17.124 -30,30 v 277.5 c 0,18.1602 17.124,30 30,30 h 277.5 c 18.1592,0 30,-17.124 30,-30 v -277.5 c 0,-18.1602 -17.124,-30 -30,-30 z M 769.5,2202 v 217.5 H 552 V 2202 Z m 30,-60 H 522 c -18.1592,0 -30,17.124 -30,30 v 277.5 c 0,18.1592 17.124,30 30,30 h 277.5 c 18.1592,0 30,-17.124 30,-30 V 2172 c 0,-18.1592 -17.124,-30 -30,-30 z M 1171,418.835 v 252.5 H 918.5 v -252.5 z m 12.5,-25 H 906 c -7.56641,0 -12.5,7.13477 -12.5,12.5 v 277.5 c 0,7.56641 7.13477,12.5 12.5,12.5 h 277.5 c 7.5664,0 12.5,-7.13477 12.5,-12.5 v -277.5 c 0,-7.56641 -7.1348,-12.5 -12.5,-12.5 z M 1146,1498.5 V 1701 H 943.5 v -202.5 z m 37.5,-75 H 906 c -22.6992,0 -37.5,21.4053 -37.5,37.5 v 277.5 c 0,22.6992 21.4053,37.5 37.5,37.5 h 277.5 c 22.6992,0 37.5,-21.4053 37.5,-37.5 V 1461 c 0,-22.6992 -21.4053,-37.5 -37.5,-37.5 z m 423,-1017.165 H 1329 v 277.5 h 277.5 z M 1594,780.649 v 252.5 h -252.5 v -252.5 z m 12.5,-25 H 1329 c -7.5664,0 -12.5,7.13477 -12.5,12.5 v 277.5 c 0,7.5664 7.1348,12.5 12.5,12.5 h 277.5 c 7.5664,0 12.5,-7.1348 12.5,-12.5 v -277.5 c 0,-7.56641 -7.1348,-12.5 -12.5,-12.5 z m 0,354.351 H 1329 v 277.5 h 277.5 z m -25,727 v 227.5 H 1354 V 1837 Z m 25,-50 H 1329 c -15.1328,0 -25,14.2705 -25,25 v 277.5 c 0,15.1328 14.2705,25 25,25 h 277.5 c 15.1328,0 25,-14.2705 25,-25 V 1812 c 0,-15.1328 -14.2705,-25 -25,-25 z m 405,-1380.665 H 1734 v 277.5 h 277.5 z m 0,361.814 H 1734 v 277.5 h 277.5 z m 0,692.851 H 1734 v 277.5 h 277.5 z m 0,351 H 1734 v 277.5 h 277.5 z m 0,360 H 1734 v 277.5 h 277.5 z m 423,-1765.665 H 2157 v 277.5 h 277.5 z m 0,361.814 H 2157 v 277.5 h 277.5 z m 0,341.851 H 2157 v 277.5 h 277.5 z m 0,351 H 2157 v 277.5 h 277.5 z m 0,351 H 2157 v 277.5 h 277.5 z m 0,360 H 2157 v 277.5 h 277.5 z"
     id="path1" />
</svg>
