<?xml version="1.0" encoding="UTF-8" standalone="no"?>
<svg
   version="1.1"
   viewBox="-420 0 2820.0376 2310.6858"
   id="svg1"
   width="2820.0376"
   height="2310.6858"
   xmlns="http://www.w3.org/2000/svg"
   xmlns:svg="http://www.w3.org/2000/svg">
  <defs
     id="defs1" />
  <path
     d="m 2397.3811,2305.6273 c 0,2.5313 -3.2109,5.0576 -7.4316,5.0576 -0.333,0 -124.137,0.208 -160.769,-5.5517 -35.2744,-5.5567 -101.571,-21.8271 -135.238,-27.1221 -9.5371,-1.502 -22.4785,-1.7198 -37.5732,-1.7198 -6.1846,0 -12.7266,0.037 -19.5479,0.037 -31.2441,0 -68.2764,-0.7685 -102.857,-9.3418 -55.4707,-13.7529 -66.4512,-23.4023 -112.407,-23.4023 -3.752,0 -7.7412,0.063 -12.0049,0.1954 -19.2285,0.5966 -30.7461,0.9423 -38.5283,0.9423 -15.332,0 -16.1631,-1.3437 -32.8857,-4.7636 -24.4512,-5.003 -130.837,-8.835 -130.837,-8.835 -0.1163,0 -0.3487,-0.019 -0.5079,-0.029 -20.3223,-1.6611 -29.4521,-10.54 -29.4521,-19.4209 0,-9.166 9.7276,-18.334 26.915,-19.5664 13.9102,-0.999 27.251,-1.3027 39.7314,-1.3027 19.3516,0 36.6426,0.7304 50.7998,0.7304 12.3594,0 22.333,-0.5566 29.21,-2.6416 20.8984,-6.3281 25.9814,-16.2344 67.3926,-23.7646 39.3574,-7.1591 65.7803,-14.4072 93.2676,-18.1543 28.9551,-3.9443 46.6816,-2.8076 54.0059,-9.0468 9.2442,-7.8828 30.7178,-8.8965 49.2559,-8.8965 6.4122,0 12.4746,0.1221 17.5586,0.1221 3.8135,0 7.0772,-0.068 9.5245,-0.3086 21.9805,-2.1387 46.7803,-4.5118 46.7803,-13.4824 0,-0.2725 -0.023,-0.5508 -0.069,-0.834 -1.5156,-9.3242 -79.9785,-22.6182 -141.118,-22.6182 -59.9736,0 -76.1445,-12.918 -101.442,-14.4814 -29.5605,-1.833 -100.608,-7.0537 -126.312,-12.8975 -24,-5.458 -36.7939,-14.8252 -54.957,-14.8252 -2.4043,0 -4.9023,0.1631 -7.5322,0.5224 -9.3955,1.2813 -25.7373,2.4776 -42.6221,2.4776 -26.6582,0 -54.665,-2.9844 -58.8125,-13.3389 -0.959,-2.4024 -1.3779,-4.6787 -1.3779,-6.833 0,-14.0312 17.8096,-22.7988 19.6445,-26.5576 -6.9551,-3.2627 -44.5654,-6.2735 -58.835,-6.2735 -17.1553,0 -88.0771,-5.4336 -109.643,-7.2724 -19.9902,-1.7051 -97.5469,-1.7754 -166.707,-5.3994 -5.2803,-0.2793 -12.1426,-0.3584 -20.0732,-0.3584 -10.042,0 -21.7959,0.1259 -34.2178,0.1259 -24.7305,0 -52.1055,-0.497 -73.8848,-3.4697 -38.7559,-5.2861 -69.9424,-3.3613 -95.61823,-7.248 -16.1416,-2.4473 -90.6738,3.8603 -90.6738,-21.2197 0,-23.6855 34.0371,-21.7578 88.3037,-28.4814 18.09283,-2.2442 32.02053,-2.9219 43.16803,-2.9219 16.9746,0 27.502,1.5713 36.4814,1.5713 4.9043,0 9.3476,-0.4688 14.126,-1.917 20.3418,-6.1563 50.4385,-17.3574 81.2637,-17.3574 4.3711,0 8.7568,0.2256 13.1309,0.7217 18.8877,2.1435 38.8535,3.871 54.5273,3.871 11.1455,0 20.1191,-0.873 24.9932,-3.0898 18.7588,-8.5283 59.0957,-11.6973 88.9756,-11.6973 22.6406,0 28.6748,4.3887 36.5859,4.3887 4.2949,0 9.1435,-1.293 17.501,-5.2842 30.708,-14.6582 122.288,-6.9219 150.407,-13.3086 27.9727,-6.3613 48.9229,-18.5098 111.344,-18.5098 4.2265,0 8.6425,0.057 13.2646,0.1729 31.0234,0.7841 61.085,1.4502 86.8525,1.4502 33.7051,0 60.0635,-1.1397 71.6084,-4.6387 29.5303,-8.9385 49.6279,-6.4453 49.6279,-11.7734 0,-0.4951 -0.1739,-1.0576 -0.5313,-1.7031 -6.4814,-11.8018 -5.25,-9.2549 -52.249,-13.0273 -44.6377,-3.5791 -126.437,-5.3496 -148.552,-7.2383 -21.7969,-1.8535 -43.998,-5.586 -63.7568,-13.2832 -16.7646,-6.5313 -84.1201,-21.0264 -102.384,-21.0264 -22.5527,0 -69.624,-11.0186 -84.2334,-11.0186 -0.7832,0 -1.4717,0.031 -2.0615,0.098 -9.2305,1.0489 -32.1289,8.8145 -55.7656,8.8145 -8.6738,0 -17.4434,-1.0459 -25.6777,-3.8516 -24.5518,-8.3701 -46.5586,-6.6142 -69.1953,-8.5478 -20.8408,-1.7754 -63.2939,-3.5342 -88.1943,-7.3125 -14.8037,-2.2422 -43.8945,-16.29 -43.8945,-27.5537 0,-5.7373 7.5459,-10.752 28.3711,-13.1182 46.9482,-5.334 84.2842,-14.4707 128.044,-16.3291 5.3926,-0.2315 10.2432,-0.3291 14.6631,-0.3291 24.8838,0 36.0693,3.0986 53.0127,3.0986 4.8721,0 10.2207,-0.2568 16.5088,-0.916 28.9951,-3.0401 51.1631,-7.6621 74.9414,-7.6621 3.874,0 7.792,0.122 11.7871,0.3945 3.376,0.2305 7.4873,0.3301 12.1709,0.3301 29.5977,0 82.1416,-3.9688 117.027,-3.9688 38.2275,0 68.79,-8.6972 88.1279,-12.4629 19.998,-3.8916 37.1113,-3.7041 62.3594,-12.3164 31.7275,-10.8203 85.5762,-14.7363 85.5762,-26.7031 0,-1.6543 -1.0303,-3.4609 -3.2861,-5.4609 -24.3984,-21.6191 -121.787,-54.0713 -171.781,-54.0713 -56.1729,0 -65.3838,-20.5664 -93.9453,-23.5615 -33.9707,-3.5654 -150.631,-10.7979 -172.158,-12.6367 -20.6875,-1.7656 -288.061,-12.4688 -334.909,-19.9834 -45.6455,-7.3262 -54.8906,-10.7383 -104.75503,-12.5273 -4.28711,-0.1543 -8.24609,-0.2207 -11.9375,-0.2207 -25.1875,0 -37.8809,3.1318 -57.1611,3.1318 -9.49121,0 -20.5781,-0.7588 -35.541,-3.0254 -47.666,-7.2226 -114.392,-17.96 -141.589,-17.96 -34.2168,0 -27.8291,-10.8477 -45.0801,-10.8477 -16.8633,0 -35.6318,9.7041 -73.1084,9.7041 -5.53027,0 -11.4697,-0.2109 -17.8682,-0.6962 -47.334,-3.584 -178.954,-4.7256 -211.75,-14.8896 -7.2334,-2.2422 -17.5762,-2.9717 -29.2129,-2.9717 -21.8398,0 -48.2441,2.5732 -67.2119,2.5732 -6.58203,0 -12.2705,-0.3105 -16.5615,-1.1445 -1.99121,-0.3897 -4.13379,-0.5459 -6.50684,-0.5459 -9.75,0 -23.3877,2.6396 -46.499,2.6396 -10.1074,0 -22.0234,-0.5039 -36.2236,-1.956 -52.7588,-5.3975 -166.859,-14.4463 -217.116,-18.0537 -41.3721,-2.9707 -71.5947,-5.8779 -103.904,-5.8779 -7.22656,0 -14.5566,0.1464 -22.1406,0.4677 -3.55664,0.1524 -7.02441,0.2217 -10.4062,0.2217 -38.9355,0 -66.6133,-9.248 -90.8301,-9.248 -8.85156,0 -27.7148,0.8808 -48.4941,0.8808 -36.3447,0 -78.5615,-2.6943 -83.3867,-17.5029 -1.35938,-4.1689 -2.42383,-8.1738 -2.42383,-11.8936 0,-12.4844 11.9941,-21.7451 65.0645,-23.1934 15.5771,-0.4238 34.209,-0.5566 54.0693,-0.5566 33.9541,0 71.5029,0.3906 103.509,0.3906 29.3818,0 54.0938,-0.3291 67.0723,-1.5937 33.6475,-3.2803 90.4375,-12.9131 131.8679999,-12.9131 3.52637,0 6.9375,0.068 10.2139001,0.2177 35.9316,1.6309 77.1445,9.7022 100.359,9.7022 3.37695,0 6.36914,-0.1709 8.91211,-0.5567 24.3926,-3.6923 95.3945,-12.7744 123.594,-12.7744 26.8574,0 82.5449,1.8096 108.728,1.8096 21.9727,0 43.9395,6.0391 62.9258,6.0391 7.44141,0 14.4268,-0.9287 20.7725,-3.5127 59.6279,-24.2881 109.807,-27.3242 145.947,-27.3242 12.043,0 22.5254,0.3379 31.2832,0.3379 10.7549,0 18.8994,-0.5088 24.1211,-2.7754 29.208,-12.6719 33.4502,-16.1562 110.062,-16.1562 70.1602,0 97.1357,-11.0361 137.012,-11.0361 3.01855,0 6.11133,0.062 9.2998,0.1992 27.3369,1.1631 48.7432,4.6631 67.0869,4.6631 11.6104,0 21.9961,-1.4033 31.8828,-5.6914 12.51369,-5.4287 35.25289,-6.8223 60.26559,-6.8223 26.3965,0 55.3203,1.5518 77.4336,1.5518 13.3125,0 24.1553,-0.5625 30.4941,-2.3633 33.9277,-9.6416 59.0449,-5.9131 94.6172,-9.3838 38.5615,-3.752 29.2646,-0.055 57.4424,-5.294 17.9453,-3.3379 20.5146,-11.4492 44.916,-11.4492 7.0479,0 15.9189,0.6778 27.5068,2.3418 11.998,1.7227 21.1387,2.3496 28.6074,2.3496 20.0449,0 28.0684,-4.5175 47.043,-4.5175 2.5654,0 5.3301,0.082 8.3525,0.2695 7.1329,0.4424 23.4521,0.6455 44.2588,0.6455 59.9004,0 157.005,-1.6855 179.252,-4.21 6.8575,-0.7802 13.8066,-1.0546 20.6846,-1.0546 16.1377,0 31.8701,1.5078 45.0479,1.5078 10.8027,0 19.8867,-1.0127 26.0645,-4.7002 6.1778,-3.6875 9.7237,-6.625 10.3848,-7.8799 -2.205,-1.4981 -17.7871,-5.7451 -56.6748,-8.5879 -74.5244,-5.4434 -156.453,-12.4736 -192.803,-22 -33,-8.6563 -125.956,-19.6074 -163.786,-26.9785 -36.5186,-7.1152 -56.9473,-21.9756 -102.402,-21.9756 -4.4814,0 -9.208,0.1455 -14.2139,0.4541 -7.5293,0.4668 -14.3301,0.6728 -20.5303,0.6728 -43.3887,0 -57.3984,-10.0859 -86.7422,-11.5186 -26.1348,-1.2675 -92.709,3.2608 -92.709,-15.9971 0,-1.5459 0.4288,-3.2451 1.3399,-5.1142 9.5937,-19.625 33.835,-25.168 99.5566,-26.9629 65.3301,-1.7793 89.709,-12.2998 118.169,-16.1758 6.6201,-0.9043 13.4365,-1.2285 20.6143,-1.2285 18.375,0 39.1123,2.1289 64.917,2.1289 9.0732,0 18.7734,-0.2637 29.2148,-0.9746 53.3906,-3.6436 87.7598,-3.7383 115.465,-8.8887 25.5459,-4.749 87.9951,-18.8389 118.475,-18.8389 3.9805,0 7.414,0.2402 10.1504,0.7734 2.6055,0.5078 7.9111,0.7158 14.8701,0.7158 29.4707,0 88.6035,-3.747 97.998,-4.4238 1.9941,-0.5537 11.0879,-3.539 13.6475,-5.7441 -1.5947,-0.9141 -8.4551,-3.7276 -24.0664,-6.042 -19.2744,-2.8565 -42.583,-3.5537 -66.4951,-3.5537 -22.7988,0 -46.1504,0.6338 -67.082,0.6338 -24.3945,0 -45.501,-0.8614 -58.625,-4.5899 -30.5762,-8.6806 -66.9199,-12.29 -106.356,-14.0801 -23.335,-1.0625 -99.3906,-7.7314 -99.3906,-21.1777 0,-2.3886 2.3994,-4.9892 7.9199,-7.8125 24.1084,-12.335 103.342,-24.5215 137.044,-24.5215 10.4033,0 21.5186,0.169 32.8047,0.169 23.6602,0 48.0703,-0.7422 68.2656,-5.3301 13.5889,-3.0899 29.5303,-3.7647 46.5762,-3.7647 13.2148,0 27.0977,0.4063 41.0645,0.4063 14.5537,0 29.1973,-0.4404 43.2754,-2.2383 125.702,-16.06839 77.6797,-16.91309 122.332,-66.38569 29.9746,-33.2148 47.4951,-36.9199 47.4951,-47.0654 0,-4.99414 -4.2461,-11.5488 -13.3447,-23.9541 -27.3203,-37.2617 -109.133,-55.0547 -137.224,-64.6309 -23.5947,-8.04785 -89.752,-7.71289 -114.637,-18.3203 -17.25,-7.34766 -96.8955,-8.11914 -130.453,-13.8438 -3.7197,-0.63379 -7.6543,-0.88476 -11.7451,-0.88476 -15.8604,0 -34.0996,3.77734 -51.5469,3.77734 -10.2129,0 -20.1533,-1.29297 -29.1875,-5.39941 -13.959,-6.34375 -31.4307,-11.3086 -51.5527,-11.3086 -12.1914,0 -25.3564,1.82227 -39.3086,6.26172 -8.6602,2.75391 -19.7949,3.89648 -32.3564,3.89648 -52.2109,0 -129.128,-19.7207 -155.937,-25.3438 -32.8984,-6.90137 -139.09499,-14.2432 -168.86099,-17.9404 -17.4297,-2.15918 -116.83,-0.56934 -116.83,-24.958 0,-2.25391 0.85059,-4.73145 2.69141,-7.4541 18.0703,-26.6973 57.6689,-28.2549 99.5566,-28.2549 22.4434,0 38.1689,1.80762 53.80179,1.80762 15.28029,0 30.47169,-1.72656 51.75679,-8.56055 34.7627,-11.1504 102.391,-17.1406 147.705,-17.1406 16.4678,0 29.9893,0.79101 37.9141,2.41309 3.3106,0.67675 5.9092,0.97168 8.0274,0.97168 12.3027,0 8.6767,-9.87695 36.7549,-12.0059 23.8408,-1.7998 76.6055,-5.5625 106.683,-14.1006 8.5957,-2.44336 16.1533,-3.3418 22.8594,-3.3418 18.7354,0 30.8535,7.01953 40.5996,7.01953 3.7539,0 7.1543,-1.04102 10.4434,-3.9248 20.2676,-17.7676 98.6855,-36.4277 131.878,-36.4277 1.6728,0 3.2314,0.0478 4.6591,0.1455 2.002,0.13575 4.1709,0.2002 6.4854,0.2002 25.3164,0 67.9463,-7.63281 97.623,-11.0029 31.9268,-3.62402 174.363,-21.7676 213.36,-21.7676 28.4326,0 73.8135,-7.77637 73.8135,-22.123 0,-5.8877 -7.6465,-12.8828 -27.248,-20.9033 -77.6367,-31.7598 -202.729,-19.375 -224.903,-26.9346 -12.209,-4.16309 -145.483,-8.49316 -188.525,-12.1611 -38.9414,-3.31543 -91.3613,-22.916 -126.097,-22.916 -6.8125,0 -12.9424,0.75293 -18.1621,2.53223 -21.8867,7.46289 -62.0322,12.4648 -96.9229,12.4648 -26.5293,0 -50.0234,-2.8916 -60.1465,-9.7959 -1.7617,-1.2002 -3.7285,-1.69629 -5.9111,-1.69629 -10.334,0 -25.5498,11.0928 -47.1504,11.0928 -7.5332,0 -15.8408,-1.34863 -24.9883,-4.98633 -28.8516,-11.4795 -110.782,-15.5879 -134.971,-17.4219 -25.9863,-1.97363 -45.77544,-14.9268 -68.00984,-14.9268 -2.22266,0 -4.4668,0.1289 -6.74707,0.41113 -13.8975,1.72363 -52.6279,3.45898 -96.8301,3.45898 -53.8545,0 -115.83,-2.57617 -150.892,-10.8945 -25.0654,-5.94141 -46.1787,-7.3877 -65.0674,-7.3877 -17.9287,0 -33.8496,1.30176 -49.2422,1.30176 -6.60254,0 -13.1074,-0.23828 -19.6299,-0.92383 -32.2832,-3.38184 -101.696,-2.04688 -121.483,-20.0469 -4.99609,-4.54102 -7.2627,-10.0557 -7.2627,-15.6084 0,-13.7227 13.8447,-27.668 34.5127,-27.668 3.17773,0 6.51562,0.33008 9.99023,1.04004 10.6582,2.18066 18.584,3.49219 26.8867,3.49219 11.5039,0 23.7314,-2.51562 44.9551,-8.7168 37.5176,-10.9658 60.6836,-14.876 106.344,-14.876 43.3164,0 38.7051,-7.2334 68.9492,-7.2334 24.6035,0 24.4395,7.93848 38.79,7.93848 6.20605,0 15.123,-1.4834 29.9277,-5.7334 51.1113,-14.6729 99.8838,-22.0947 148.726,-22.0947 47.45698,0 86.85058,-1.79395 126.31098,-5.37891 32.665,-2.96973 35.875,-18.2646 92.2129,-18.2646 3.1133,0 6.3926,0.0479 9.8447,0.14649 43.6807,1.23926 53.5049,7.30176 62.9814,7.30176 5.4454,0 10.7734,-2.00195 22.3408,-8.06836 22.5889,-11.8467 15.2334,-17.5781 43.9395,-17.5781 10.0342,0 24.4746,0.70019 46.1387,2.08496 65.9746,4.22168 90.5459,15.1289 108.673,15.1289 6.4668,0 12.1113,-1.38965 18.5264,-4.96484 28.7627,-16.0439 137.592,-27.1201 192.512,-27.1201 7.9229,0 14.7227,0.22949 19.998,0.70898 33.2285,3.01758 47.1797,8.82812 64.2363,8.82812 4.6377,0 9.502,-0.43066 15.0459,-1.46094 30.0771,-5.5918 72.5166,-9.2207 94.7627,-9.2207 18.8818,0 148.008,-25.3125 167.062,-25.3125 8.6006,0 49.0537,-7.47559 58.3652,-14.041 -1.2861,-0.62207 -4.5117,-1.95703 -10.2188,-3.18848 -16.1543,-3.47949 -32.126,-4.50293 -47.0391,-4.50293 -21.4014,0 -40.6182,2.11035 -55.0439,2.11035 -5.705,0 -10.6611,-0.3291 -14.707,-1.25098 -13.3643,-3.03027 -163.61,-0.85449 -193.986,-9.13574 -24.6309,-6.71875 -104.944,-15.915 -132.49,-15.915 -19.9971,0 -27.7139,3.06348 -48.5254,3.06348 -7.0498,0 -15.6045,-0.35254 -26.6445,-1.29297 -43.6719,-3.72266 -42.6436,-16.8193 -49.1611,-18.2979 -0.8798,-0.2002 -3.1816,-0.25293 -6.5107,-0.25293 -3.6152,0 -8.4482,0.0615 -13.998,0.0615 -28.1416,0 -74.7275,-1.58887 -74.7275,-20.8887 0,-19.2627 44.3125,-20.0381 68.167,-20.0381 l 5.7471,0.006 c 4.4092,0 7.5234,-0.0391 8.6191,-0.31055 13.167,-6.289059 36.999,-11.672899 90.498,-18.970699 51.2139,-6.98535 37.0225,-12.2158 84.6113,-19.8545 9.8272,-1.57715 17.4072,-2.17773 23.4736,-2.17773 19.4121,0 23.3135,6.1543 35.7705,6.1543 3.7471,0 8.2666,-0.556641 14.2158,-2.00488 39.3359,-9.58008 119.692,-8.16602 140.024,-14.3262 28.2998,-8.57812 36.4717,1.12207 71.292,-10.748 38.8711,-13.249997 51.7627,-9.45703 111.736,-27.235397 64.3447,-19.0741997 201.344,-1.25586 233.822,-9.1660197 39.0908,-9.51758 77.3242,-5.70996004 77.7305,-5.67578004 3.1172,0.28711004 6.4385,2.34375004 6.4385,5.02246004 z m -14.85,-5.08 2.6406,-2290.140014 c -12.6035,-0.5693397 -38.46,-0.7070297 -64.3242,5.58691 -41.7725,10.1738 -175.264,-8.1679697 -232.896,8.91797 -62.002,18.3809 -75.6348,14.9453 -111.012,27.0078 -39.4307,13.4434 -52.4766,5.05859 -71.9004,10.9473 -27.4082,8.30469 -106.154,6.09961 -141.067,14.6025 -9.7031,2.3623 -16.8281,3.22363 -22.5244,3.22363 -15.3252,0 -20.2949,-6.23438 -37.2217,-6.23438 -4.2314,0 -9.2158,0.389648 -15.2949,1.36523 -42.5693,6.82617 -30.25,12.4434 -85.1055,19.9229 -52.8369,7.208984 -76.0557,12.840804 -84.5098,17.165004 -7.8935,4.03906 -20.2168,4.74414 -32.6855,4.74414 -6.6914,0 -13.4238,-0.20313 -19.5381,-0.20313 -13.7412,0 -24.3613,1.02539 -24.3613,7.68066 0,13.1699 59.959,5.76074 85.085,11.4697 25.3115,5.75 5.124,14.3477 46.3027,17.8633 10.1729,0.86524 17.8662,1.19141 24.1611,1.19141 19.2188,0 25.3887,-3.04199 49.168,-3.04199 30.7949,0 109.584,8.88965 138.001,16.6367 22.6611,6.1748 174.706,4.74121 193.173,8.93848 1.1719,0.2666 2.8975,0.375 5.1074,0.375 10.0234,0 30.0645,-2.24219 54.1104,-2.24219 17.7383,0 37.6592,1.2207 57.3418,5.46094 15.4502,3.3252 21.4668,7.08789 21.4668,10.9082 0,12.7246 -66.7334,26.0967 -74.0801,26.0967 -12.7744,0 -143.524,25.31251 -167.062,25.31251 -20.1865,0 -62.6113,3.60938 -90.8613,8.86426 -7.3662,1.36914 -13.8574,1.92383 -19.9287,1.92383 -20.6221,0 -36.3955,-6.40332 -65.2119,-9.02246 -4.0283,-0.36719 -9.207,-0.54004 -15.2705,-0.54004 -50.6484,0 -163.177,12.0869 -185.885,24.7539 -9.9648,5.55957 -19.0605,7.61426 -28.9609,7.61426 -23.8369,0 -52.3604,-11.9121 -109.027,-15.5332 -31.8301,-2.03516 -45.749,-3.48535 -52.5967,-3.48535 -11.666,0 -2.8056,4.21094 -27.041,16.9219 -14.3721,7.53906 -23.0869,9.93066 -31.7305,9.93066 -13.7549,0 -27.3369,-6.05469 -63.2637,-7.07715 -3.2099,-0.0918 -6.2353,-0.13477 -9.0869,-0.13477 -51.6904,0 -47.6738,14.2949 -90.3906,18.1748 -40.0957,3.64355 -80.2598,5.4668 -128.26796,5.4668 -46.6094,0 -93.3066,7.04492 -142.967,21.3037 -16.2061,4.65234 -27.8203,6.24902 -36.6826,6.24902 -19.4023,0 -25.5762,-7.66309 -37.7939,-7.66309 -22.791,0 -22.1074,7.2334 -68.9492,7.2334 -44.5,0 -63.7656,3.31738 -100.498,14.0547 -22.2656,6.50488 -37.1826,9.25684 -51.3535,9.25684 -9.8252,0 -19.291,-1.32422 -30.5977,-3.63574 -1.54297,-0.31543 -3.06934,-0.46387 -4.56445,-0.46387 -11.458,0 -21.0469,8.69043 -21.0469,17.4482 0,3.30469 1.36523,6.62012 4.51172,9.48047 12.0273,10.9307 75.207,12.2656 111.868,16.1123 4.60742,0.4834 9.45703,0.66114 14.584,0.66114 14.2695,0 30.6641,-1.37793 49.8369,-1.37793 20.5811,0 44.3584,1.58691 72.1289,8.17188 32.3701,7.67676 94.6367,10.043 148.213,10.043 42.6504,0 79.7959,-1.49902 91.9834,-3.01367 3.55957,-0.44043 7.04492,-0.6377 10.4521,-0.6377 28.4219,0 51.50489,13.7607 68.59769,15.0547 23.5508,1.78516 106.03,4.9043 140.814,18.7373 3.2656,1.29883 6.7666,1.82617 10.4434,1.82617 15.917,0 35.0879,-9.89258 52.3066,-9.89258 6.4727,0 12.6719,1.39941 18.3145,5.24805 5.8447,3.9834 25.7012,5.95215 49.3184,5.95215 31.6895,0 70.1475,-3.54395 90.6123,-10.5205 8.0332,-2.7373 17.124,-3.86133 26.8467,-3.86133 41.6436,0 94.8584,20.6113 125.895,23.2559 44.1221,3.75781 168.47,6.08203 198.423,14.5645 l 0.2393,0.008 c 1.6494,0 11.6719,-0.33398 26.959,-0.33398 45.2666,0 136.693,2.93848 193.609,26.2227 25.6172,10.4805 35.3633,19.9277 35.3633,28.1035 0,21.1045 -64.9609,33.7295 -89.5723,33.7295 -35.2539,0 -179.201,18.0244 -210.924,21.6289 -28.2891,3.21387 -70.0244,11.166 -99.293,11.166 -3.0567,0 -5.9756,-0.0869 -8.7315,-0.27441 -0.8682,-0.0606 -1.8203,-0.0879 -2.8535,-0.0879 -26.5898,0 -105.24,19.1455 -120.486,32.5146 -7.0772,6.2041 -15.542,8.17285 -24.4922,8.17285 -15.5361,0 -32.5381,-5.9248 -46.3252,-5.9248 -3.2256,0 -6.2754,0.32325 -9.0879,1.12402 -33.5713,9.53711 -86.874,13.0117 -110.758,14.8213 -12.3887,0.93848 -18.1621,12.123 -37.5469,12.123 -3.8037,0 -8.1328,-0.43164 -13.1387,-1.45508 -5.6523,-1.15723 -16.3535,-1.72461 -29.9277,-1.72461 -42.3613,0 -112.715,5.5293 -145.104,15.9189 -23.7969,7.63477 -41.7773,9.52246 -58.96679,9.52246 -16.8281,0 -32.8965,-1.81055 -52.916,-1.81055 -42.9775,0 -72.3213,2.06152 -86.0693,22.3721 -0.62598,0.92579 -0.92383,1.78906 -0.92383,2.59375 0,12.0801 67.3828,11.0537 104.228,15.6182 28.57623,3.54102 134.52802,10.6543 170.57402,18.2197 29.4727,6.18652 107.638,24.7051 153.622,24.7051 9.6914,0 17.9521,-0.82226 24.0254,-2.75488 15.9648,-5.08008 31.2129,-7.15234 45.373,-7.15234 23.6025,0 44.1797,5.75977 60.0059,12.9512 4.8886,2.22168 10.5615,2.98242 16.9131,2.98242 13.7637,0 30.709,-3.57324 49.7363,-3.57324 6.8144,0 13.8936,0.45801 21.1895,1.70312 30.0771,5.12109 109.548,4.35059 134.73,15.0791 17.5332,7.47559 83.9648,7.81055 113.404,17.8467 24.9434,8.49805 112.848,26.8652 143.867,69.1602 9.5058,12.9619 13.6465,21.3896 13.6465,28.1582 0,15.1367 -20.7129,21.9775 -48.4365,52.6973 -40.2148,44.5498 -3.3711,54.5508 -132.236,71.02444 -17.3145,2.2148 -34.9404,2.7089 -51.7539,2.7089 -13.543,0 -26.5605,-0.3222 -38.4629,-0.3222 -15.1094,0 -28.4238,0.5176 -38.7422,2.8633 -22.2363,5.0546 -47.373,5.9199 -70.916,5.9199 -12.2627,0 -24.0918,-0.2344 -34.8525,-0.2344 -30.4541,0 -109.238,13.6396 -127.916,22.3701 13.5029,5.4629 55.3389,9.6416 83.3281,10.9121 40.1064,1.8193 78.0127,5.4473 111.086,14.8398 9.1113,2.5908 26.1416,3.2002 47.1328,3.2002 18.6826,0 40.502,-0.4824 62.6631,-0.4824 27.9404,0 56.4229,0.7676 79.8525,4.2392 26.5,3.9297 34.7891,9.3164 34.7891,14.5166 0,8.6914 -23.1436,16.8672 -23.1436,16.8672 -0.5723,0.1475 -1.3418,0.2608 -1.8262,0.2959 -0.3291,0.023 -59.3623,4.7823 -95.8857,4.7823 -10.2383,0 -18.707,-0.3741 -23.6191,-1.3311 -1.0459,-0.2031 -2.4844,-0.2988 -4.2598,-0.2988 -21.0059,0 -89.2256,13.3428 -116.388,18.3936 -30.6377,5.6953 -65.21,5.6016 -117.887,9.1953 -12.001,0.8174 -23.0811,1.1143 -33.3154,1.1143 -26.9609,0 -48.0537,-2.0576 -64.6367,-2.0576 -5.6211,0 -10.7217,0.2363 -15.3604,0.8691 -24.5732,3.3516 -53.2285,14.5361 -120.489,16.3643 -66.8672,1.8242 -79.7539,7.1289 -86.0684,20.0518 -0.1679,0.3447 -0.2509,0.6699 -0.2509,0.9756 0,6.2695 34.7256,4.7002 78.5977,6.8359 35.7246,1.7393 46.0371,11.4766 86.1533,11.4766 5.6044,0 11.792,-0.1914 18.709,-0.6201 5.4238,-0.3359 10.5791,-0.4912 15.4912,-0.4912 50.2656,0 75.4609,16.3008 106.552,22.3584 36.4219,7.0947 129.089,17.8369 165.047,27.2656 32.5918,8.5469 115.072,15.9824 189.048,21.3857 48.7119,3.5596 68.8945,10.2119 68.8945,19.0879 0,4.4922 -5.1622,9.5518 -14.4131,15.0703 -10.6494,6.3525 -24.8965,8.0078 -39.8848,8.0078 -16.29,0 -33.4541,-1.956 -47.8164,-1.956 -4.0625,0 -7.9014,0.1562 -11.4336,0.5586 -24.3223,2.7636 -116.098,4.4384 -176.749,4.4384 -23.3135,0 -42.0293,-0.2461 -50.5479,-0.7763 -1.6719,-0.1026 -3.2735,-0.1504 -4.8223,-0.1504 -15.2129,0 -25.1738,4.5547 -47.5469,4.5547 -8.8223,0 -19.5742,-0.7071 -33.3438,-2.6836 -12.2676,-1.7598 -20.291,-2.4893 -25.9756,-2.4893 -17.0498,0 -13.0811,6.5498 -39.4854,11.458 -30.1641,5.6055 -23.5508,2.0762 -59.2402,5.5508 -38.6768,3.7685 -61.2852,0.2578 -91.0068,8.7012 -11.1621,3.1738 -28.5586,4.0654 -48.0693,4.0654 -24.9414,0 -53.334,-1.4551 -76.5664,-1.4551 -18.4736,0 -33.6836,0.9199 -41.2959,4.2236 -13.25391,5.751 -26.83301,7.5596 -40.95511,7.5596 -20.8682,0 -42.9307,-3.9492 -66.9189,-4.9697 -2.48535,-0.1065 -4.92773,-0.1563 -7.33594,-0.1563 -35.8428,0 -64.6377,11.0137 -138.047,11.0137 -77.1924,0 -72.9502,1.9327 -102.085,14.5742 -11.1914,4.8565 -25.1992,5.6494 -42.1865,5.6494 -8.22852,0 -17.1572,-0.1865 -26.8047,-0.1865 -34.6602,0 -78.6016,2.4004 -132.723,24.4473 -9.69043,3.9463 -20.1084,5.2979 -30.5352,5.2979 -22.6758,0 -45.4004,-6.3906 -60.7783,-6.3906 -26.8643,0 -82.5518,-1.8096 -108.728,-1.8096 -24.835,0 -97.0254,9.0029 -120.374,12.5371 -4.25977,0.6465 -8.9873,0.9228 -14.0752,0.9228 -27.987299,0 -66.907199,-8.3789 -99.402299,-9.8515 -2.7763701,-0.126 -5.6894501,-0.1856 -8.7255901,-0.1856 -38.2079999,0 -95.3026999,9.3955 -130.2670009,12.8027 -14.4434,1.4063 -40.2812,1.7744 -70.4355,1.7744 -33.1992,0 -71.625,-0.4453 -105.832,-0.4453 -18.3252,0 -35.4375,0.126 -49.8926,0.5196 -43.1279,1.1777 -52.3477,4.6084 -52.3477,11.1631 0,3.1279 2.09961,6.9677 3.61523,11.6133 2.68457,8.2451 66.6172,8.6982 104.622,8.6982 4.70508,0 9.01074,-0.01 12.7568,-0.01 29.6523,0 55.7959,9.2325 91.5498,9.2325 2.85645,0 5.77637,-0.059 8.75879,-0.1856 7.97266,-0.3398 15.6602,-0.4912 23.2129,-0.4912 33.5332,0 64.381801,2.9981 105.311001,5.9395 50.5038999,3.6191 164.460999,12.6562 217.769999,18.1035 11.6484,1.1914 21.4912,1.6191 30.0215,1.6191 21.5938,0 34.7676,-2.7373 47.4775,-2.7373 4.47656,0 8.89453,0.3398 13.6016,1.2568 1.63574,0.3194 4.02637,0.4502 7.02539,0.4502 13.9541,0 41.0869,-2.8379 66.5801,-2.8379 15.5479,0 30.4863,1.0547 41.4541,4.4551 25.5459,7.919 159.107,10.3965 207.239,14.04 5.55371,0.4209 10.6543,0.6065 15.3838,0.6065 34.2227,0 49.0293,-9.6739 73.9551,-9.6739 30.4922,0 20.957,10.8477 45.0801,10.8477 31.1426,0 97.0098,10.9561 144.809,18.1982 13.1621,1.9942 22.8408,2.6729 31.2109,2.6729 17.7764,0 29.6738,-3.0576 56.5605,-3.0576 4.38281,0 9.16309,0.082 14.4316,0.2695 50.89453,1.8301 62.86523,5.6475 107.37903,12.7861 43.3105,6.9502 311.611,17.9404 333.343,19.7949 20.9053,1.7803 137.595,9.0019 172.581,12.6758 40.3809,4.2324 41.7734,23.4434 91.6816,23.4434 56.0713,0 154.908,32.6396 183.558,58.0264 4.8017,4.2568 6.8964,8.1367 6.8964,11.6768 0,21.8477 -79.7568,30.751 -94.3223,35.7148 -27.7861,9.4727 -47.7979,9.6611 -64.9238,12.9971 -17.7881,3.4609 -50.8721,12.8496 -92.2041,12.8496 -33.3037,0 -84.0391,3.999 -115.885,3.999 -5.5761,0 -10.5693,-0.1221 -14.793,-0.4092 -3.247,-0.2207 -6.4716,-0.3222 -9.705,-0.3222 -21.1719,0 -42.7109,4.3164 -73.2822,7.5205 -7.8975,0.8281 -14.4834,1.1435 -20.3545,1.1435 -18.5947,0 -29.9941,-3.165 -53.1475,-3.165 -3.6827,0 -7.6621,0.08 -12.0166,0.2656 -41.1055,1.75 -78.0195,10.6992 -126.535,16.2109 -11.7803,1.3389 -16.4443,3.8086 -16.4443,6.6211 0,5.2441 16.2217,11.6768 32.752,14.1768 22.8252,3.4619 65.2227,5.3106 86.8145,7.1543 19.7959,1.6865 45.5146,-0.1777 73.9961,9.5361 5.5039,1.875 11.5186,2.6045 17.7383,2.6045 19.082,0 40.1514,-6.8486 54.627,-8.497 1.6386,-0.1856 3.4668,-0.2696 5.456,-0.2696 22.6465,0 66.1113,11.0527 83.2754,11.0527 24.1523,0 89.3906,14.4258 109.75,22.3604 17.3652,6.7686 37.5967,10.2744 58.2324,12.0283 20.3027,1.7305 102.927,3.5801 148.45,7.2285 43.1582,3.4659 54.9912,2.3926 64.417,19.5234 1.1494,2.0879 1.6768,3.9737 1.6768,5.6817 0,15.7422 -44.6953,16.3818 -58.6484,20.6094 -14.8232,4.4941 -41.0342,5.8369 -73.3301,5.8369 -27.293,0 -58.9307,-0.96 -91.7158,-1.7871 -4.7676,-0.1221 -9.2813,-0.1787 -13.5664,-0.1787 -58.9141,0 -74.3135,10.8477 -105.793,18.001 -35.5283,8.0781 -124.268,1.3496 -146.593,12.0039 -11.2158,5.3525 -19.5908,7.0029 -26.9697,7.0029 -11.8818,0 -21.1836,-4.2793 -35.6289,-4.2793 -28.457,0 -67.6787,4.0586 -80.7383,9.9961 -8.5821,3.9023 -20.5771,5.2627 -33.9492,5.2627 -17.918,0 -38.3018,-2.4424 -56.2451,-4.4815 -3.3213,-0.3769 -6.7031,-0.5507 -10.1279,-0.5507 -25.8809,0 -54.1592,9.8974 -75.7979,16.4551 -8.503,2.5781 -15.6025,3.3486 -22.8711,3.3486 -10.8369,0 -22.0518,-1.7139 -38.8662,-1.7139 -9.6387,0 -21.1162,0.5635 -35.41802,2.336 -62.4004,7.7412 -76.1064,6.0507 -76.1064,18.5234 0,11.0791 47.459,6.541 79.04393,11.332 22.05079,3.3408 54.51269,1.6455 95.31349,7.208 20.2324,2.7607 46.7529,3.1787 71.3252,3.1787 10.6973,0 21.0225,-0.079 30.2998,-0.079 9.6445,0 18.1553,0.085 24.7676,0.4345 68.7402,3.6045 144.976,3.5352 167.418,5.4483 20.8672,1.7803 93.1377,7.1943 107.8,7.1943 1.3652,0 3.5234,-0.02 6.2578,-0.02 19.3271,0 67.4619,0.9297 67.4619,15.9277 0,14.835 -19.3369,17.4365 -19.3369,28.4795 0,0.7822 0.096,1.6055 0.3037,2.4805 4.9639,3.4306 30.1406,5.4531 53.4834,5.4531 11.6904,0 22.9189,-0.5069 30.917,-1.5977 3.8477,-0.5254 7.5107,-0.7597 11.0186,-0.7597 24.3281,0 41.125,11.3008 59.0859,15.3877 22.0205,5.0039 94.1816,10.6299 122.961,12.4141 33.0283,2.0478 43.3828,14.4414 100.094,14.4414 55.5264,0 152.088,8.4101 155.88,31.626 0.1377,0.8388 0.2041,1.6484 0.2041,2.4287 0,20.5381 -45.625,21.6699 -59.5742,23.0322 -21.9922,2.1406 -60.4805,-0.045 -66.8545,5.3838 -13.8926,11.835 -38.582,9.3632 -62.6768,12.6465 -25.5459,3.4804 -52.1553,10.6982 -92.3555,18.0059 -38.1338,6.9345 -38.3594,15.1133 -65.1875,23.2402 -10.5107,3.1845 -23.4707,4.0205 -38.2764,4.0205 -16.3213,0 -34.8838,-1.0147 -54.8936,-1.0147 -10.0225,0 -20.4072,0.2539 -31.0537,1.0186 -8.8721,0.6367 -14.1035,4.7578 -14.1035,9.0283 0,4.1455 4.9297,8.4316 16.2363,9.8076 0.6221,0.021 105.559,3.3379 134.462,9.25 16.8467,3.4463 15.8301,4.6445 25.624,4.6445 6.3848,0 17.3594,-0.5088 40.8584,-1.2382 4.2881,-0.1329 8.3369,-0.1963 12.1807,-0.1963 50.1357,0 65.3301,10.9521 117.977,24.0059 32.1357,7.9629 67.0244,8.3662 98.0342,8.3662 h 10.3242 c 19.0469,0 36.2344,0.1631 49.8789,2.3076 35.2764,5.5518 101.57,21.8223 135.237,27.123 27.293,4.2949 124.601,5.1758 150.023,5.2793 z m 7.42,5.07 2.6543,-2299.8200137 c 0,0 -37.125,-3.61328 -74.25,5.4238297 -37.125,9.04297 -172.369,-9.0371097 -233.359,9.04297 -60.9873,18.0791 -74.25,14.4648 -111.375,27.1211 -37.125,12.6563 -47.7324,3.61426 -71.5938,10.8477 -23.8711,7.23242 -103.422,5.42285 -140.547,14.4648 -7.75,1.88672 -13.5361,2.5918 -18.248,2.5918 -13.9297,0 -18.498,-6.15332 -36.7373,-6.15332 -5.1562,0 -11.4033,0.492188 -19.2646,1.75293 -45.0781,7.23242 -31.8242,12.6562 -84.8594,19.8887 -53.0312,7.23242 -76.9023,12.656204 -87.5098,18.080104 -10.6025,5.42285 -79.5527,-3.61914 -79.5527,16.2695 0,19.88864 74.25,12.6562 90.1602,16.2754 15.915,3.61328 5.3086,14.4609 47.7324,18.0801 10.6064,0.90136 18.7256,1.24219 25.3945,1.24219 20.0176,0 26.9756,-3.05273 48.8555,-3.05273 29.1699,0 108.723,9.04297 135.245,16.2754 26.5186,7.22852 177.665,5.42383 193.581,9.03711 2.4678,0.56152 5.7666,0.77539 9.7637,0.77539 12.625,0 32.2393,-2.125 54.7891,-2.125 16.3457,0 34.2363,1.11621 52.1211,4.96875 11.3008,2.43262 15.7979,5.1377 15.7979,7.87109 0,9.45508 -53.835,19.2461 -66.1777,19.2461 -15.915,0 -145.853,25.3125 -167.062,25.3125 -21.2158,0 -63.6475,3.61914 -92.8125,9.04297 -6.4463,1.19922 -12.1182,1.69043 -17.4697,1.69043 -18.8574,0 -33.7539,-6.1084 -64.7402,-8.92383 -4.627,-0.41992 -10.5801,-0.62012 -17.5371,-0.62012 -52.8428,0 -163.519,11.5557 -189.297,25.9326 -8.1621,4.55273 -15.4951,6.27441 -23.6797,6.27441 -21.0703,0 -47.7979,-11.4072 -108.914,-15.3164 -26.6016,-1.70117 -41.4756,-2.68945 -50.4258,-2.68945 -19.5938,0 -10.7666,4.74316 -34.4316,17.1543 -12.959,6.79785 -19.9209,8.99512 -26.9463,8.99512 -11.6611,0 -23.4951,-6.05566 -63.2119,-7.18457 -3.3301,-0.0947 -6.4825,-0.13964 -9.4668,-0.13964 -54.0137,0 -53.6094,14.7939 -91.2988,18.2188 -39.7812,3.61426 -79.5586,5.42285 -127.29102,5.42285 -47.7275,0 -95.459,7.2334 -145.848,21.6992 -15.499,4.44922 -25.7285,5.98926 -33.2354,5.98926 -16.8916,0 -19.999,-7.79883 -38.3604,-7.79883 -26.5156,0 -23.8691,7.2334 -68.9492,7.2334 -45.0801,0 -66.2949,3.61328 -103.42,14.4648 -21.748,6.35449 -35.3037,8.98633 -48.1328,8.98633 -9.07324,0 -17.7812,-1.31543 -28.7637,-3.5625 -2.5,-0.51172 -4.92773,-0.75 -7.26172,-0.75 -16.1035,0 -27.7949,11.3242 -27.7949,22.5615 0,4.4248 1.81348,8.83789 5.88477,12.5381 15.9082,14.4658 82.2031,14.4658 116.676,18.0801 5.53418,0.58007 11.2041,0.78808 17.0752,0.78808 14.8721,0 31.0381,-1.33398 49.5713,-1.33398 19.7461,0 42.1836,1.51562 68.5996,7.77832 33.7158,7.99707 95.7959,10.4678 149.504,10.4678 43.4473,0 81.415,-1.61621 94.4551,-3.23535 2.90039,-0.3584 5.74707,-0.52246 8.54883,-0.52246 25.36815,0 46.86324,13.3594 68.35344,14.9893 23.8702,1.80859 106.076,5.42285 137.893,18.0791 5.96,2.36914 11.8252,3.28223 17.546,3.28223 19.1113,0 36.6006,-10.1777 50.5225,-10.1777 4.1669,0 8.0156,0.91211 11.4902,3.28125 7.9785,5.44141 29.6846,7.87402 54.7871,7.87402 33.2871,0 72.5469,-4.27734 93.7129,-11.4932 6.5917,-2.24609 14.1815,-3.18262 22.4502,-3.18262 38.3144,0 91.1484,20.0996 126.05,23.0723 42.4238,3.61426 175.016,7.2334 190.9239,12.6562 15.9103,5.42285 145.848,-5.42285 225.404,27.1221 22.6075,9.24902 31.296,17.4756 31.296,24.5137 0,17.7275 -55.1075,27.916 -81.6827,27.916 -37.125,0 -180.316,18.084 -212.143,21.6982 -28.9727,3.29102 -71.1465,11.083 -98.4746,11.083 -2.6826,0 -5.2226,-0.0742 -7.5927,-0.23633 -1.1309,-0.0762 -2.3682,-0.11426 -3.7022,-0.11426 -29.9404,0 -108.463,18.8877 -126.235,34.4697 -5.04,4.41797 -10.6699,5.90332 -16.832,5.90332 -12.6328,0 -27.5098,-6.24023 -44.167,-6.24023 -5.1357,0 -10.4414,0.59375 -15.9043,2.14551 -31.8242,9.03711 -84.8594,12.6562 -108.722,14.4609 -20.1367,1.52637 -21.3965,12.0615 -37.2197,12.0615 -2.9345,0 -6.3672,-0.36035 -10.5117,-1.20996 -6.7734,-1.38672 -18.916,-2.06543 -33.9922,-2.06543 -43.9277,0 -112.771,5.75977 -146.334,16.5264 -22.5371,7.23242 -39.1123,9.04102 -55.35449,9.04102 -16.24217,0 -32.15137,-1.80859 -53.36617,-1.80859 -42.4316,0 -76.9043,1.81055 -92.8125,25.3125 -1.21094,1.78809 -1.77441,3.42871 -1.77441,4.93555 0,18.3252 83.5439,17.0391 110.495,20.377 29.1699,3.61914 135.24497,10.8477 169.71697,18.0801 28.1064,5.89746 105.57,25.0166 154.783,25.0166 11.1475,0 20.8438,-0.98046 28.1875,-3.31738 14.959,-4.75879 29.166,-6.70703 42.3418,-6.70703 21.8643,0 40.8857,5.3623 55.7783,12.1299 6.8916,3.13184 14.667,4.15332 23.0049,4.15332 15.6719,0 33.3379,-3.60742 50.8838,-3.60742 5.4561,0 10.9023,0.34864 16.2705,1.26367 31.8184,5.42383 111.375,5.42383 132.591,14.4609 21.21,9.042 87.5049,9.042 114.022,18.084 26.5176,9.03711 111.375,27.1172 140.545,66.8955 9.3037,12.6865 13.4834,20.2217 13.4834,26.1279 0,12.6143 -19.0576,17.791 -47.9541,49.8096 -42.4316,47.0107 0,52.4346 -127.284,68.70412 -15.6602,2.0029 -31.7793,2.4677 -47.4912,2.4677 -13.7197,0 -27.1279,-0.3535 -39.6465,-0.3535 -16.1641,0 -30.8438,0.5928 -42.7998,3.3096 -21.209,4.8213 -45.9551,5.626 -69.5215,5.626 -11.792,0 -23.2881,-0.2022 -33.8975,-0.2022 -31.8262,0 -111.375,12.6562 -132.594,23.5078 -2.7256,1.3946 -3.9629,2.7295 -3.9629,4.001 0,8.6172 56.8135,14.3115 91.4756,15.8877 39.7725,1.8047 76.8975,5.4238 108.722,14.4609 11.1162,3.1592 30.3213,3.8906 53.2109,3.8906 19.75,0 42.2422,-0.5449 64.6406,-0.5449 25.9502,0 51.7764,0.7305 73.0742,3.8867 22.999,3.4092 30.1611,7.333 30.1611,10.8975 0,5.8907 -19.5537,10.8018 -19.5537,10.8018 0,0 -62.7725,4.628 -97.3965,4.628 -8.6621,0 -15.5645,-0.2901 -19.2773,-1.0147 -1.8252,-0.3545 -4.2158,-0.5176 -7.0693,-0.5176 -26.1572,0 -91.2656,13.707 -117.569,18.5977 -29.1699,5.4239 -63.6426,5.4239 -116.674,9.043 -11.2051,0.7627 -21.5781,1.042 -31.2236,1.042 -26.3662,0 -47.2939,-2.0879 -64.8174,-2.0879 -6.419,0 -12.3809,0.2793 -17.9902,1.0459 -26.5156,3.6133 -53.0312,14.4648 -119.328,16.2695 -66.2969,1.8096 -84.8594,7.2324 -92.8125,23.5078 -0.5166,1.0625 -0.7656,2.0391 -0.7656,2.9375 0,12.8838 50.9219,9.8369 85.625,11.5234 32.5273,1.585 44.6982,11.498 86.4502,11.498 5.8994,0 12.3926,-0.1982 19.6162,-0.6465 5.2158,-0.3232 10.1543,-0.4736 14.8535,-0.4736 47.8613,0 70.6699,15.5811 104.477,22.167 37.125,7.2334 129.938,18.0801 164.416,27.123 34.4688,9.0371 116.674,16.2695 190.924,21.6934 47.252,3.4541 63.3613,7.6377 63.3613,13.4844 0,3.3408 -5.2618,7.2256 -12.9727,11.8281 -8.3985,5.0088 -20.1152,6.3359 -33.1846,6.3359 -14.7441,0 -31.207,-1.6904 -46.5557,-1.6904 -5.4219,0 -10.7051,0.2119 -15.7285,0.7822 -23.2939,2.6446 -117.629,4.3243 -177.962,4.3243 -22.0898,0 -39.623,-0.2256 -47.4404,-0.71 -2.3047,-0.1436 -4.4629,-0.207 -6.502,-0.207 -17.1914,0 -26.2197,4.5322 -47.4199,4.5322 -8.1377,0 -18.0645,-0.667 -30.9355,-2.5156 -11.9072,-1.71 -20.4082,-2.4092 -26.8311,-2.4092 -20.7568,0 -19.835,7.3037 -42.1123,11.4463 -29.1719,5.4238 -21.2168,1.8096 -58.3418,5.4238 -37.125,3.6192 -60.9863,0 -92.8125,9.042 -8.6523,2.459 -22.7988,3.1797 -39.3984,3.1797 -23.4766,0 -51.8545,-1.4404 -76.5312,-1.4404 -22.0312,0 -41.1172,1.1474 -51.13279,5.4941 -11.56249,5.0156 -23.54299,6.624 -36.43549,6.624 -19.6289,0 -41.3721,-3.7256 -66.9844,-4.8154 -2.8291,-0.1201 -5.58887,-0.1767 -8.29883,-0.1767 -37.8896,0 -65.7734,11.0244 -137.549,11.0244 -76.9023,0 -76.9023,2.7089 -106.072,15.3652 -8.13086,3.5283 -19.457,4.1767 -33.7793,4.1767 -8.30371,0 -17.6152,-0.2197 -27.8936,-0.2197 -35.5713,0 -82.7373,2.6094 -139.862,25.8789 -7.99316,3.2549 -16.6797,4.3955 -25.6396,4.3955 -20.9053,0 -43.3027,-6.2051 -61.8652,-6.2051 -26.5225,0 -82.21,-1.8096 -108.728,-1.8096 -26.518,0 -98.1133,9.043 -121.982,12.6562 -3.37109,0.5118 -7.2168,0.7334 -11.4512,0.7334 -25.738297,0 -65.763697,-8.2216 -99.923797,-9.7705 -3.0244101,-0.1367 -6.1845701,-0.2021 -9.4638701,-0.2021 -39.8319999,0 -96.7724999,9.5146 -131.0760029,12.8584 -13.709,1.334 -38.9951,1.6836 -68.7764,1.6836 -32.6113,0 -70.6113,-0.418 -104.703,-0.418 -19.0723,0 -36.9229,0.1299 -51.9238,0.5391 -48.25,1.3173 -58.5762,7.4199 -58.5762,16.9209 0,3.5517 1.44531,7.581 2.88867,12.0107 3.67188,11.2646 48.0273,12.9971 84.6504,12.9971 16.2666,0 31.0117,-0.3409 39.9805,-0.3409 26.9258,0 53.8496,9.2403 91.2041,9.2403 3.11426,0 6.30371,-0.064 9.56836,-0.2031 7.77734,-0.3311 15.2881,-0.4805 22.6758,-0.4805 32.9229,0 63.458003,2.9531 104.608003,5.9082 50.3808999,3.6142 164.407997,12.6562 217.442997,18.0801 12.8711,1.3154 23.7129,1.7803 33.0166,1.7803 22.2803,0 35.7402,-2.6622 47.1504,-2.6622 3.45801,0 6.72949,0.2442 9.99902,0.8819 2.83203,0.5508 6.77637,0.7656 11.5332,0.7656 16.7246,0 43.4766,-2.6562 67.1201,-2.6562 13.6748,0 26.3125,0.8886 35.3682,3.6953 29.1699,9.042 161.76,10.8516 209.494,14.4648 5.9707,0.4531 11.4854,0.6513 16.6104,0.6513 35.8506,0 52.6709,-9.6884 73.5479,-9.6884 23.8701,0 15.9102,10.8477 45.0801,10.8477 29.1699,0 95.4648,10.8457 143.199,18.0791 14.0566,2.1298 24.4336,2.8486 33.3652,2.8486 18.5312,0 30.8438,-3.0938 56.9004,-3.0938 4.03125,0 8.39355,0.074 13.1562,0.2451 50.37893,1.8096 60.98633,5.4229 106.06603,12.6562 45.0797,7.2334 312.915,18.0791 334.125,19.8896 21.2148,1.8086 137.893,9.0372 172.371,12.6562 34.4688,3.6133 39.7715,23.502 92.8125,23.502 53.0312,0 151.146,32.5459 177.669,56.0488 3.5127,3.1133 5.0693,5.9395 5.0693,8.5235 0,16.9307 -66.9189,23.4102 -89.9258,31.2549 -26.5186,9.042 -45.0811,9.042 -63.6436,12.6562 -18.5625,3.6142 -50.3877,12.6562 -90.165,12.6562 -34.0859,0 -85.708,3.9834 -116.465,3.9834 -5.1309,0 -9.6807,-0.1113 -13.4727,-0.3692 -3.6182,-0.246 -7.1865,-0.3584 -10.7422,-0.3584 -22.4844,0 -44.3418,4.4707 -74.1152,7.5909 -7.081,0.7431 -13.0439,1.0302 -18.416,1.0302 -17.7852,0 -29.0986,-3.1298 -53.1309,-3.1298 -4.042,0 -8.4473,0.089 -13.3057,0.2949 -42.4326,1.8047 -79.5576,10.8477 -127.29,16.2705 -16.3105,1.8525 -22.4053,5.6074 -22.4053,9.8916 0,8.25 22.6084,18.4658 38.3203,20.8438 23.8623,3.6191 66.29,5.4238 87.5049,7.2334 21.2168,1.8096 45.0801,0 71.5977,9.042 6.8525,2.3349 14.2354,3.2226 21.6934,3.2226 21.4023,0 43.4131,-7.3095 55.209,-8.6504 1.0606,-0.1201 2.2725,-0.1767 3.6162,-0.1767 18.8721,0 64.0938,11.0283 83.8975,11.0283 21.209,0 87.5039,14.4609 106.066,21.6934 18.5621,7.2325 39.7773,10.8516 60.9961,12.6562 21.209,1.8096 103.419,3.6191 148.5,7.2324 45.0781,3.6191 50.3789,1.8106 58.334,16.2754 0.749,1.3594 1.0986,2.5742 1.0986,3.669 0,10.5322 -32.5059,9.6669 -54.1338,16.2158 -13.1943,3.999 -39.3643,5.2353 -72.2305,5.2353 -26.5703,0 -57.5176,-0.8086 -89.5244,-1.6162 -4.6884,-0.1191 -9.1503,-0.1758 -13.4033,-0.1758 -60.6855,0 -78.8438,11.4951 -108.578,18.2549 -31.8262,7.2334 -121.984,0 -148.5,12.6562 -9.7714,4.6631 -16.2998,6.1348 -22.1113,6.1348 -9.9609,0 -17.8086,-4.3252 -36.2324,-4.3252 -29.1699,0 -68.9473,3.6133 -84.8574,10.8467 -6.7207,3.0566 -17.2344,4.1758 -29.5332,4.1758 -16.8037,0 -36.9473,-2.0889 -55.3242,-4.1758 -3.8437,-0.4356 -7.7255,-0.6367 -11.6221,-0.6367 -28.3682,0 -57.5557,10.5527 -78.5381,16.9072 -6.5947,1.998 -12.3818,2.6172 -18.5352,2.6172 -9.9511,0 -20.8594,-1.6153 -37.7012,-1.6153 -10.415,0 -23.0996,0.6172 -39.22844,2.6172 -58.335,7.2324 -82.2051,5.4229 -82.2051,23.502 0,18.0801 60.9951,12.6562 84.8574,16.2754 23.86514,3.6143 55.68744,1.8047 95.46874,7.2285 21,2.8662 47.9424,3.3243 72.5869,3.3243 11.5801,0 22.6533,-0.1006 32.3662,-0.1006 8.7608,0 16.4121,0.082 22.3281,0.3955 68.9502,3.6133 145.848,3.6133 167.062,5.4228 21.2188,1.8096 92.8125,7.2334 108.723,7.2334 15.915,0 66.2949,1.8086 66.2949,10.8457 0,7.9932 -19.6709,14.3545 -19.6709,27.1494 0,1.6826 0.3409,3.4746 1.1084,5.3965 2.6231,6.5459 30.5342,9.1748 56.8643,9.1748 13.6592,0 26.8916,-0.707 35.9482,-1.9414 3.2344,-0.4424 6.3096,-0.6406 9.2618,-0.6406 21.2549,0 36.082,10.3389 57.0332,15.1055 23.8652,5.4238 95.4688,10.8477 124.638,12.6562 29.165,1.8047 42.4248,14.4609 100.769,14.4609 58.334,0 145.844,10.8516 148.5,27.1221 0.09,0.5556 0.1347,1.0937 0.1347,1.6152 0,14.7783 -35.2471,16.5264 -53.1758,18.2744 -18.5625,1.8086 -60.9902,-1.8106 -71.5977,7.2324 -10.6074,9.0371 -31.8174,7.2324 -58.3398,10.8467 -26.5176,3.6143 -53.0352,10.8467 -92.8125,18.0791 -39.7715,7.2334 -42.4277,16.2754 -66.29,23.5039 -8.6894,2.6328 -20.2295,3.3272 -33.9365,3.3272 -15.2627,0 -33.21,-0.8604 -52.9033,-0.8604 -11.2061,0 -22.9775,0.2783 -35.1416,1.1524 -12.8838,0.9257 -20.5664,7.7578 -20.5664,14.5791 0,6.5185 7.0166,13.0234 23.2129,14.3467 0,0 106.072,3.6191 132.59,9.0429 16.8096,3.4375 16.5713,4.6963 29.0029,4.6963 7.1797,0 18.5869,-0.4199 39.9482,-1.083 4.2715,-0.1328 8.2862,-0.1963 12.085,-0.1963 48.0586,0 61.1299,10.2979 115.196,23.7041 33.3486,8.2656 69.293,8.8545 100.408,8.8545 5.168,0 10.2031,-0.016 15.0732,-0.016 17.0977,0 32.1318,0.2002 43.6279,2.0088 34.4707,5.4228 100.766,21.6934 135.238,27.1211 34.4775,5.4238 159.107,5.4238 159.107,5.4238 z"
     id="path1" />
</svg>
