<?xml version="1.0" encoding="UTF-8" standalone="no"?>
<svg
   version="1.1"
   viewBox="-700 0 2573.106 2443.1919"
   id="svg1"
   width="2573.106"
   height="2443.1919"
   xmlns="http://www.w3.org/2000/svg"
   xmlns:svg="http://www.w3.org/2000/svg">
  <defs
     id="defs1" />
  <path
     d="m 1873.106,1220.714 c 0,183.339 -65.1602,332.405 -146.04,334.282 l -1.624,0.3945 c -12.3975,0 -24.6055,-3.539 -36.1045,-10.1426 h 6.084 c -125.085,-86.6484 -168.758,-455.401 -14.6035,-644.20197 l 0.4052,0.81152 c 13.9971,-9.96387 28.7773,-15.415 44.2188,-15.415 81.4766,0 147.664,149.60305 147.664,334.27105 z m -197.56,324.128 -117.238,206.892 c 1.9033,21.3975 3.2441,43.4697 3.2441,66.123 0,183.351 -65.1602,332.407 -146.041,334.27 l -1.622,0.4072 c -11.1035,0 -21.7402,-3.0927 -32.0479,-8.5205 -0.2793,-0.1377 -0.5313,-0.2539 -0.8116,-0.4053 -126.1,-92.4531 -166.817,-473.796 0.4063,-656.371 l -169.163,-4.8662 c -172.309,166.132 -145.381,538.639 -2.4336,658.398 l 126.566,3.6504 -154.558,273.015 -685.98499,-1186.58 681.92799,-1187.38998 150.099,256.383 -122.513,-3.24414 c -172.308,166.132 -145.383,538.639 -2.4355,658.399 l 173.628,4.46191 c -123.223,-85.3555 -167.162,-444.512 -21.0947,-635.684 17.0254,-15.6943 35.6602,-24.7461 55.1699,-24.7461 81.4756,0 147.664,149.604 147.664,334.273 0,18.6846 -1.128,36.9268 -2.4356,54.7637 l 116.022,198.372 -148.068,-4.46094 c -172.309,166.13205 -145.382,538.63705 -2.4355,658.39805 z m -636.49,15.01 c -128.267,-88.8516 -170.889,-474.491 -2.4336,-658.399 l -169.16399,-4.46289 c -172.308,166.13299 -145.381,538.63999 -2.43457,658.40099 z M 962.066,6.56 305.871,1112.13 h -996.6 L -67.332,0 Z m 23.502,2436.632 H -76.602 L -700,1331.062 h 996.601 z"
     id="path1" />
</svg>
