<?xml version="1.0" encoding="UTF-8" standalone="no"?>
<svg
   version="1.1"
   viewBox="-542 0 2258.4829 2378.5779"
   id="svg1"
   width="2258.4829"
   height="2378.5779"
   xmlns="http://www.w3.org/2000/svg"
   xmlns:svg="http://www.w3.org/2000/svg">
  <defs
     id="defs1" />
  <path
     d="M 586.423,0 C 755.9,0 893.7,60.2344 895.435,135 l 0.36328,1.5 c 0,11.4609 -3.26953,22.7461 -9.375,33.375 v -5.625 c -80.0977,115.629 -420.973,156 -595.5,13.5 l 0.75,-0.375 c -9.21094,-12.9375 -14.25,-26.6016 -14.25,-40.875 0,-75.3164 138.293,-136.5 309,-136.5 z M 886.048,182.625 1077.298,291 c 19.7812,-1.75781 40.1836,-3 61.125,-3 169.488,0 307.277,60.2344 309,135 l 0.375,1.5 c 0,10.2656 -2.8594,20.0977 -7.875,29.625 -0.1289,0.25781 -0.2344,0.49219 -0.375,0.75 -85.4648,116.566 -437.977,154.207 -606.75,-0.375 l -4.5,156.375 c 153.574,159.281 497.918,134.391 608.625,2.25 l 3.375,-117 L 1692.673,639 595.793,1273.125 -501.827,642.75 l 237,-138.75 -3,113.25 c 153.574,159.281 497.918,134.391 608.625,2.25 L 344.923,459 c -78.9023,113.906 -410.906,154.523 -587.625,19.5 -14.5078,-15.7383 -22.875,-32.9648 -22.875,-51 0,-75.3164 138.293,-136.5 309,-136.5 17.2734,0 34.1367,1.04297 50.625,2.25 L 277.423,186 273.298,322.875 c 153.574,159.281 497.918,134.391 608.625,2.25 z M 899.923,771 c -82.1367,118.57 -438.621,157.969 -608.625,2.25 l -4.125,156.375 c 153.574,159.281 497.918,134.391 608.625,2.25 z M -535.94,842.168 486.05,1448.754 v 921.258 L -542,1793.742 Z m 2252.423,-21.727 v 981.867 l -1028.05,576.27 V 1457.32 Z"
     id="path1" />
</svg>
