<?xml version="1.0" encoding="UTF-8" standalone="no"?>
<svg
   version="1.1"
   viewBox="-10 0 1732.7185 1860.6875"
   id="svg1"
   width="1732.7185"
   height="1860.6875"
   xmlns="http://www.w3.org/2000/svg"
   xmlns:svg="http://www.w3.org/2000/svg">
  <defs
     id="defs1" />
  <path
     fill="currentColor"
     d="M -9.9999999,1432 C -9.9999999,1234.375 150.375,1074 348,1074 c 98.7812,0 188.312,40.125 253.094,104.904 l 70.7188,70.6895 c 64.7793,64.7812 104.906,154.312 104.906,253.094 0,197.656 -160.375,358 -358.031,358 -98.7812,0.031 -188.312,-40.0938 -253.094,-104.875 L 94.875,1685.125 C 30.0918,1620.3438 -10.002,1530.813 -9.9999999,1432 Z m 945.9976999,0 c 0.002,-197.625 160.377,-358 358.002,-358 98.7812,0 188.314,40.125 253.096,104.906 l 70.7168,70.6875 c 64.7812,64.7812 104.873,154.312 104.875,253.094 0,197.656 -160.344,357.998 -358,358 -98.7812,0.031 -188.312,-40.0938 -253.094,-104.875 l -70.7188,-70.6875 C 976.0935,1620.3438 935.9997,1530.813 935.9977,1432 Z M -9.9999999,358 C -9.9999999,160.375 150.375,7.129567e-8 348,7.129567e-8 446.8125,7.129567e-8 536.344,40.125 601.125,104.906 l 70.6895,70.7188 c 64.7793,64.75 104.904,154.312 104.904,253.094 0,197.594 -160.375,357.969 -358,358 -98.7812,-0.002 -188.342,-40.125 -253.125,-104.906 L 94.904,611.1253 C 30.1247,546.3441 -9.9999999,456.8133 -9.9999999,358.0003 Z M 935.9997,358 C 935.9997,160.375 1096.3747,7.129567e-8 1293.9997,7.129567e-8 1392.8142,-0.00199993 1482.3417,40.125 1547.0937,104.906 l 70.7188,70.7188 c 64.7812,64.75 104.906,154.311 104.906,253.092 -0.031,197.597 -160.375,357.971 -358,358.002 -98.8125,0 -188.342,-40.125 -253.123,-104.906 l -70.7207,-70.6875 c -64.75,-64.7812 -104.877,-154.312 -104.875,-253.125 z m -373.724,833.15 c 0.58984,0.2725 1.17773,0.5459 1.76758,0.8223 -2.4668,-2.2207 -4.96484,-4.4034 -7.49414,-6.5489 0.23437,0.2344 0.46875,0.4678 0.70117,0.7002 z m 946.054,0.02 c 0.6035,0.2793 1.209,0.5605 1.8125,0.8438 -2.5195,-2.2696 -5.0723,-4.5 -7.6621,-6.6895 0.2676,0.2637 0.5332,0.5332 0.8008,0.7988 z M 562.2777,117.153 c 0.58984,0.27051 1.17773,0.54395 1.76172,0.81934 -2.46094,-2.2207 -4.95898,-4.40332 -7.49023,-6.54395 0.23437,0.22949 0.4668,0.46386 0.70117,0.69726 z m 945.972,-0.035 c 0.6211,0.28906 1.2422,0.57812 1.8633,0.86816 -2.5742,-2.31738 -5.1875,-4.59863 -7.836,-6.83301 0.3282,0.32227 0.6524,0.64747 0.9766,0.97266 z m -168.58,648.688 -49.8477,-49.8291 c -53.4648,-0.61426 -104.146,-12.9707 -149.564,-34.6055 53.8711,47.9023 123.123,78.8398 199.412,84.4346 z m 29.15,0.888 c 183.311,-2.21289 331.662,-150.565 333.875,-333.875 l -51.4453,-51.4473 c -11.5527,179.02 -154.859,322.324 -333.875,333.877 z m 332.98,-363.073 c -5.6055,-76.3027 -36.5625,-145.559 -84.4883,-199.428 21.668,45.4316 34.0488,96.1309 34.6641,149.625 z M 393.6697,765.803 343.822,715.9768 c -53.4785,-0.61426 -104.168,-12.9766 -149.586,-34.625 53.875,47.9141 123.135,78.8574 199.434,84.4512 z m 29.151,0.891 c 183.311,-2.21289 331.689,-150.562 333.875,-333.873 l -51.4199,-51.4209 c -11.5918,178.997 -154.883,322.284 -333.879,333.849 z m 332.978,-363.073 c -5.60352,-76.293 -36.5547,-145.543 -84.4688,-199.409 21.666,45.4316 34.0488,96.1396 34.6758,149.638 z m 583.821,1436.159 -49.8008,-49.8027 c -53.5039,-0.6162 -104.207,-12.9922 -149.637,-34.6484 53.8965,47.9199 123.154,78.873 199.438,84.4512 z m 29.2,0.88 c 183.318,-2.2021 331.646,-150.53 333.846,-333.846 l -51.416,-51.4395 c -11.5566,179.012 -154.857,322.312 -333.867,333.869 z m 332.95,-363.05 c -5.5957,-76.2559 -36.5137,-145.498 -84.4336,-199.362 21.6562,45.417 34.0254,96.0967 34.6387,149.567 z M 393.6227,1839.78 343.82,1789.9753 c -53.4746,-0.6113 -104.17,-12.9863 -149.594,-34.6309 53.8691,47.9121 123.123,78.8574 199.396,84.4355 z m 29.194,0.88 c 183.311,-2.1992 331.662,-150.512 333.877,-333.816 l -51.4453,-51.4668 c -11.5566,179.011 -154.859,322.311 -333.869,333.867 z m 332.986,-363.01 c -5.5957,-76.2988 -36.5547,-145.575 -84.4902,-199.453 21.6699,45.4248 34.0488,96.1309 34.6641,149.627 z m -212.678,-277.4 c -58.002,-57.9688 -132.312,-91.25 -195.125,-91.249 -125.5,-10e-4 -293,132.06 -293,322.999 0,94.5625 40.875,174.75 97.873,231.75 58.0039,57.9688 132.283,91.248 195.127,91.25 125.5,0 293,-132.062 293,-322.999 0,-94.5635 -40.9062,-174.751 -97.875,-231.751 z M 35.0508,1437.93 c -0.0332,-1.9717 -0.05273,-3.9453 -0.05078,-5.9258 0,-100.07 42.964801,-185.013 102.979,-245.332 -68.177699,58.4287 -111.75,144.763 -112.953,241.231 z m 1.8418,30.12 -10.9297,-10.9297 c 5.63477,73.1797 35.6758,139.534 82.0137,190.979 -1.93359,-4.1201 -3.78516,-8.2842 -5.55859,-12.4902 -34.2969,-46.7168 -58.7559,-103.51 -65.5254,-167.56 z m 623.3181,-12.67 c -6.0957,89.9658 -46.9492,166.445 -102.27,222.016 61.4434,-52.625 102.916,-127.899 111.436,-212.839 z m 0.766,-27.53 9.97266,9.9727 c 0.0332,-1.9375 0.0508,-3.8789 0.0527,-5.8243 -0.002,-43.5352 -8.62305,-85.0615 -24.2598,-122.963 -5.91797,-7.9404 -12.1387,-15.5703 -18.6211,-22.8809 20.0371,42.1934 32.2363,89.876 32.8555,141.695 z m 828.183,-227.57 c -58.0312,-58 -132.344,-91.2812 -195.156,-91.2812 -125.469,0 -293,132.062 -293.002,323 0,94.5625 40.877,174.75 97.8457,231.719 58,58 132.312,91.2812 195.156,91.2812 125.469,0 293,-132.062 293,-323.002 0,-94.5605 -40.875,-174.748 -97.8438,-231.717 z m -508.11,237.61 c -0.033,-1.956 -0.047,-3.9219 -0.049,-5.8916 0,-100.064 42.9668,-185.01 102.98,-245.332 -68.1719,58.4238 -111.744,144.744 -112.955,241.2 z m 1.84,30.12 -10.9277,-10.9258 c 5.6309,73.209 35.6895,139.587 82.0488,191.048 -1.9277,-4.1094 -3.7754,-8.2607 -5.541,-12.4609 -34.3418,-46.7451 -58.8164,-103.563 -65.5801,-167.661 z m 623.32,-12.67 c -6.084,89.9844 -46.9414,166.48 -102.27,222.062 61.4551,-52.6367 102.934,-127.934 111.439,-212.895 z m 0.77,-27.52 9.9727,9.9766 c 0.033,-1.9278 0.051,-3.8594 0.051,-5.795 0,-43.5586 -8.6308,-85.1016 -24.2754,-123.025 -5.9121,-7.9511 -12.1406,-15.583 -18.6367,-22.8887 20.0527,42.1934 32.2617,89.8828 32.8887,141.732 z M 543.1247,126.25 c -58,-58 -132.312,-91.25 -195.125,-91.252 -125.5,0.002 -293,132.064 -293,323.002 0,94.5625 40.875,174.748 97.875,231.75 57.998,58 132.312,91.25 195.127,91.25 125.498,0 292.998,-132.062 292.998,-323 0,-94.5625 -40.9062,-174.75 -97.875,-231.75 z M 35.0527,363.925 c -0.03516,-1.9707 -0.05273,-3.94434 -0.05273,-5.92383 0,-100.071 42.964804,-185.014 102.979,-245.333 -68.177696,58.4316 -111.75,144.763 -112.953,241.231 z m 1.8399,30.123 -10.9297,-10.9268 c 5.63477,73.1816 35.6816,139.535 82.0176,190.958 -1.92578,-4.11035 -3.77539,-8.26367 -5.54297,-12.4609 -34.3086,-46.7246 -58.7754,-103.513 -65.5449,-167.57 z m 623.3201,-12.68 c -6.09375,89.9736 -46.9453,166.458 -102.271,222.031 61.4492,-52.6279 102.928,-127.915 111.438,-212.865 z m 0.762,-27.518 9.97266,9.97168 c 0.0352,-1.9375 0.0527,-3.875 0.0508,-5.82129 0.002,-43.5381 -8.61914,-85.0596 -24.2539,-122.968 -5.91602,-7.92969 -12.1348,-15.5576 -18.6172,-22.8623 20.0352,42.1826 32.2285,89.8594 32.8477,141.68 z m 828.115,-227.602 C 1431.1209,68.25 1356.8107,35 1293.9957,35 c -125.5,0.03223 -293,132.062 -293,323 0,94.5625 40.875,174.75 97.875,231.75 58,58 132.311,91.25 195.125,91.25 125.469,0 293,-132.062 292.967,-323 0,-94.5625 -40.873,-174.75 -97.873,-231.752 z m -508.04,237.677 c -0.035,-1.96875 -0.051,-3.94434 -0.051,-5.9248 0,-100.234 43.1113,-185.28 103.283,-245.616 -68.3633,58.4248 -112.076,144.862 -113.289,241.484 z m 1.84,30.122 -10.9629,-10.9609 c 5.6309,73.2139 35.6992,139.561 82.0469,191.014 -1.9375,-4.12988 -3.7949,-8.30273 -5.5703,-12.5215 -34.291,-46.7188 -58.7461,-103.492 -65.5137,-167.531 z m 623.3,-12.705 c -6.0742,89.9795 -46.9316,166.479 -102.266,222.064 61.4629,-52.627 102.947,-127.914 111.459,-212.872 z m 0.75,-27.523 10.0059,10.0059 c 0.033,-1.9375 0.053,-3.87891 0.051,-5.82422 0,-43.541 -8.6231,-85.0693 -24.2559,-122.977 -5.9238,-7.95801 -12.1582,-15.5986 -18.6543,-22.9111 20.0352,42.1875 32.2305,89.8721 32.8535,141.706 z"
     id="path1" />
</svg>
