<?xml version="1.0" encoding="UTF-8" standalone="no"?>
<svg
   version="1.1"
   viewBox="-50 0 2482 2482"
   id="svg1"
   width="2482"
   height="2482"
   xmlns="http://www.w3.org/2000/svg"
   xmlns:svg="http://www.w3.org/2000/svg">
  <defs
     id="defs1" />
  <path
     d="M -50 0 L -50 2482 L 1343.0801 2482 L 1343.0801 2122 L 1727.002 2122 C 1748.4619 2122 1777.002 2102.2646 1777.002 2072 L 1777.002 1450 C 1777.002 1428.54 1757.2665 1400 1727.002 1400 L 1343.0801 1400 L 1343.0801 998 L 1731.002 998 C 1752.4619 998 1781.002 978.26457 1781.002 948 L 1781.002 320 C 1781.002 298.54002 1761.2665 270 1731.002 270 L 1343.0801 270 L 1343.0801 0 L -50 0 z M 1349.0801 358 L 1707.002 358 L 1707.002 490 L 1349.0801 490 L 1349.0801 358 z M 1349.0801 1500 L 1707.002 1500 L 1707.002 1632 L 1349.0801 1632 L 1349.0801 1500 z " />
</svg>
