<?xml version="1.0" encoding="UTF-8" standalone="no"?>
<svg
   version="1.1"
   viewBox="-50 0 2482 2482"
   id="svg1"
   width="2482"
   height="2482"
   xmlns="http://www.w3.org/2000/svg"
   xmlns:svg="http://www.w3.org/2000/svg">
  <defs
     id="defs1" />
  <path
     fill="currentColor"
     d="m 1349.08,490 h 357.921 V 358 H 1349.08 Z m -10,-220 h 391.921 c 30.2646,0 50,28.54 50,50 v 628 c 0,30.2646 -28.54,50 -50,50 H 1339.08 c -30.2646,0 -50,-28.54 -50,-50 V 320 c 0,-30.2646 28.54,-50 50,-50 z m 10,1362 h 357.921 V 1500 H 1349.08 Z m -60,440 v -622 c 0,-30.2646 28.54,-50 50,-50 h 387.921 c 30.2646,0 50,28.54 50,50 v 622 c 0,30.2646 -28.54,50 -50,50 H 1339.08 c -30.2646,0 -50,-28.54 -50,-50 z M -50,2482 V 0 h 1393.08 v 2482 z"
     id="path1" />
</svg>
